<?xml version="1.0" encoding="UTF-8" standalone="no"?>
<!-- Created with Inkscape (http://www.inkscape.org/) -->

<svg
   xmlns:dc="http://purl.org/dc/elements/1.1/"
   xmlns:cc="http://creativecommons.org/ns#"
   xmlns:rdf="http://www.w3.org/1999/02/22-rdf-syntax-ns#"
   xmlns:svg="http://www.w3.org/2000/svg"
   xmlns="http://www.w3.org/2000/svg"
   xmlns:sodipodi="http://sodipodi.sourceforge.net/DTD/sodipodi-0.dtd"
   xmlns:inkscape="http://www.inkscape.org/namespaces/inkscape"
   width="135.16817mm"
   height="122.12968mm"
   viewBox="0 0 135.16817 122.12968"
   version="1.1"
   id="svg4037"
   inkscape:version="0.92.4 (5da689c313, 2019-01-14)"
   sodipodi:docname="BK Laserkopf remix_venti_1.svg">
  <defs
     id="defs4031" />
  <sodipodi:namedview
     id="base"
     pagecolor="#ffffff"
     bordercolor="#666666"
     borderopacity="1.0"
     inkscape:pageopacity="0.0"
     inkscape:pageshadow="2"
     inkscape:zoom="1.4"
     inkscape:cx="203.76462"
     inkscape:cy="124.12934"
     inkscape:document-units="mm"
     inkscape:current-layer="g95"
     showgrid="false"
     fit-margin-top="0"
     fit-margin-left="0"
     fit-margin-right="0"
     fit-margin-bottom="0"
     inkscape:window-width="1920"
     inkscape:window-height="1137"
     inkscape:window-x="-8"
     inkscape:window-y="-8"
     inkscape:window-maximized="1" />
  <metadata
     id="metadata4034">
    <rdf:RDF>
      <cc:Work
         rdf:about="">
        <dc:format>image/svg+xml</dc:format>
        <dc:type
           rdf:resource="http://purl.org/dc/dcmitype/StillImage" />
        <dc:title></dc:title>
      </cc:Work>
    </rdf:RDF>
  </metadata>
  <g
     inkscape:label="Layer 1"
     inkscape:groupmode="layer"
     id="layer1"
     transform="translate(-14.201104,-14.115395)"
     style="display:none">
    <g
       transform="translate(3.0238052,-13.607006)"
       id="g4015"
       inkscape:label="base">
      <path
         id="path3021"
         d="m 60.139556,27.85501 c -11.03279,0.008 -19.97353,6.15675 -19.96777,13.74179 0.005,6.3967 6.3511,11.80427 14.98203,13.21263 1.79965,0.29366 2.81597,0.27803 3.88607,0.33073 0.2251,0.0112 0.41488,0.24381 0.40514,0.44649 -0.01,0.20267 -0.22138,0.42461 -0.44649,0.41341 -1.601,-0.0797 -1.80043,-0.0695 -2.99309,-0.1819 v 4.04316 l -2.02572,0.008 c -0.7855,0.003 -1.46676,0.62964 -1.42214,1.41387 l 1.67019,29.35221 c 0.0446,0.78423 0.63862,1.35804 1.42213,1.41387 13.81655,0.9844 27.80434,1.0429 41.96953,-0.0331 0.78324,-0.0595 1.37057,-0.62956 1.41387,-1.41387 l 1.620574,-29.35221 c 0.0433,-0.7843 -0.62838,-1.41387 -1.413864,-1.41387 h -1.62058 l -0.008,-5.21725 c -0.48247,0.0557 -1.0595,0.0831 -1.86035,0.0827 -0.23184,-1.2e-4 -0.44848,-0.2308 -0.44648,-0.43822 0.002,-0.20741 0.22296,-0.42631 0.45475,-0.42168 0.88354,0.0177 1.46875,0.0126 1.93477,-0.0992 6.285854,-1.50863 10.743974,-5.4975 10.740474,-10.12035 -0.005,-5.97609 -7.4665,-10.81355 -16.660484,-10.80658 -4.82129,0.004 -9.1648,1.34168 -12.20391,3.47266 0.57953,0.78419 1.07141,1.38189 1.62057,1.78593 0.55964,0.41175 1.18514,0.64625 2.15801,0.69454 0.22511,0.0112 0.41489,0.2438 0.40515,0.44648 -0.01,0.20268 -0.22139,0.42459 -0.44649,0.41341 -1.10107,-0.0547 -1.97141,-0.31187 -2.6293,-0.85989 -0.80242,-0.66843 -1.20266,-0.93519 -1.90996,-2.15801 -2.9501,-5.10032 -10.14068,-8.76248 -18.62833,-8.75604 z m 7.63984,38.86894 2.95176,0.0331 c 0.67261,0.008 1.20544,0.55107 1.19889,1.2237 l -0.17363,18.23144 c -0.007,0.67263 -0.55935,1.21527 -1.23196,1.20717 l -2.94349,-0.0331 c -0.67261,-0.008 -1.20544,-0.55108 -1.1989,-1.2237 l 0.17364,-18.23145 c 0.007,-0.67262 0.55108,-1.21526 1.22369,-1.20716 z m 15.53601,0.1571 c 3.73963,0.0372 6.72819,4.61009 6.67246,10.21953 -0.0557,5.60944 -3.123,10.12439 -6.86263,10.08724 -3.73963,-0.0371 -6.7282,-4.61009 -6.67246,-10.21953 0.0557,-5.60945 3.123,-10.1244 6.86263,-10.08724 z"
         style="fill:none;fill-opacity:1;fill-rule:nonzero;stroke:#000000;stroke-width:0.26458332;stroke-opacity:1"
         inkscape:connector-curvature="0" />
      <path
         inkscape:connector-curvature="0"
         id="use3078"
         d="m 24.346396,85.42669 c -1.13828,0.0329 -2.53981,0.45601 -2.9931,1.56269 l -2.74506,6.69727 c -0.68473,1.67174 1.12144,3.60638 2.06706,3.99355 l 28.94707,11.84837 c 0.31712,-0.31612 0.75726,-0.51734 1.24024,-0.52916 1.00009,-0.0245 1.83586,0.78582 1.86035,1.78593 0.12215,0.0538 0.252,0.11475 0.35553,0.1571 0.94573,0.3869 2.01912,-0.0713 2.40606,-1.01699 l 1.16582,-2.85254 13.49375,5.52318 4.05143,-1.77767 -16.32975,-6.689 1.16582,-2.85254 c 0.38693,-0.94571 -0.0619,-2.03013 -1.00873,-2.41432 L 57.667356,98.722 c -0.32252,0.3791 -0.80271,0.62351 -1.33945,0.63665 -1.0001,0.0245 -1.8648,-0.86261 -1.84382,-1.9513 -9.97603,-4.13299 -19.84307,-8.12403 -28.86439,-11.80703 -0.29376,-0.11993 -0.75591,-0.18857 -1.2733,-0.17363 z m -0.0662,3.3817 c 0.55985,-0.0103 1.13659,0.0532 1.57923,0.23151 9.37773,3.77874 18.23033,7.44041 27.59108,11.26133 0.27109,0.11958 0.40018,0.49701 0.29765,0.74414 -0.10253,0.24713 -0.46155,0.42616 -0.73587,0.31419 L 25.528696,90.14784 h -0.008 c -1.15579,-0.46896 -2.0949,-0.20783 -2.62929,0.47129 -0.20193,0.25662 -0.62923,0.32403 -0.85163,0.14056 -0.22241,-0.18346 -0.24068,-0.62316 -0.0248,-0.86816 0.6813,-0.77321 1.53477,-1.06975 2.26549,-1.08314 z m -0.89297,5.45703 c 0.0761,-0.005 0.15119,0.008 0.23151,0.0413 9.35548,3.82122 18.22687,7.46418 27.58281,11.2944 0.27925,0.11432 0.42497,0.4998 0.32247,0.75241 -0.10251,0.25262 -0.47319,0.42856 -0.75241,0.31419 L 23.238396,95.38986 c -0.31494,-0.12899 -0.4464,-0.49986 -0.34726,-0.76068 0.0708,-0.18633 0.26791,-0.34986 0.49609,-0.3638 z m 66.74942,23.0849 -4.32429,1.66191 26.574094,10.88099 c 0.20352,0.87882 2.56124,2.4591 4.24987,3.23288 1.06508,0.48806 2.17458,0.88461 3.25768,1.33119 0.74292,-1.83694 1.49368,-3.67475 2.24896,-5.50664 -1.0868,-0.43755 -2.1406,-0.94468 -3.24941,-1.32292 -1.41113,-0.48136 -4.15632,-1.13287 -5.30821,-0.678 z"
         style="fill:none;fill-opacity:1;fill-rule:nonzero;stroke:#000000;stroke-width:0.26458332;stroke-opacity:1" />
      <path
         sodipodi:nodetypes="sssccssccasssssscssccssccssccsssscsscscscsscssssacssssss"
         inkscape:connector-curvature="0"
         id="path3858"
         d="m 97.321426,95.72414 -2.43846,1.06874 c -0.50104,0.21949 -0.72824,0.79288 -0.51021,1.29456 l 0.65912,1.51661 -2.64064,3.79812 c -11.72155,5.46698 -24.52793,11.52047 -36.7777,17.29072 -0.92439,0.43543 -1.35651,1.49484 -0.94523,2.43022 l 0.77873,1.77115 c -1.04971,0.50126 -2.09649,1.00336 -3.14204,1.48272 -0.34987,-1.45095 -1.30924,-2.62493 -2.52777,-3.26484 -1.45789,-0.76562 -3.13962,-0.82677 -4.93257,-0.27242 -0.45035,0.13924 -0.92477,0.32223 -1.38901,0.55858 -0.46425,0.23636 -0.9149,0.52759 -1.32115,0.88069 -0.8125,0.70619 -1.45904,1.77831 -1.2994,3.02589 0.13634,1.06545 0.61041,2.12312 1.56125,2.78337 0.95083,0.66026 2.28341,0.83004 3.87362,0.40809 1.34508,-0.35691 2.64654,-0.80324 3.92137,-1.30755 -0.0724,0.11719 -0.10308,0.23779 -0.18929,0.35273 -0.57729,0.76972 -1.46336,1.45117 -2.40594,1.91108 -3.85112,1.87908 -7.91238,3.87876 -11.97666,5.46647 l 0.6324,1.60035 c 4.15835,-1.62447 8.25126,-3.64227 12.09799,-5.5192 1.15494,-0.56353 2.24635,-1.38105 3.02977,-2.42561 0.51302,-0.68404 0.87279,-1.48711 1.01511,-2.35241 1.26247,-0.56434 2.50385,-1.15215 3.7411,-1.74308 l 0.52168,1.17967 c 0.41329,0.9345 1.47574,1.35382 2.41835,0.9594 12.40006,-5.18854 25.63331,-10.75041 37.68169,-15.23143 l 4.571854,0.64556 0.66668,1.51332 c 0.22053,0.5006 0.79356,0.7298 1.29456,0.51021 l 2.43846,-1.06875 c 0.50104,-0.21948 0.73651,-0.79646 0.51779,-1.29785 l -2.41664,-5.53992 30.84426,-13.47697 c 0.60527,-0.26449 0.88068,-0.96072 0.6174,-1.56652 l -0.50422,-1.16021 7.69022,-3.36019 c 0.5202,-0.22723 1.80532,-1.28352 1.57809,-1.80373 -0.22627,-0.52062 -1.87951,-0.29327 -2.39969,-0.066 l -7.6902,3.36018 -0.50423,-1.16021 c -0.26328,-0.6058 -0.96877,-0.87841 -1.57411,-0.6141 l -30.83996,13.46607 -2.424234,-5.53662 c -0.21949,-0.50105 -0.80114,-0.7265 -1.30214,-0.50691 z m -52.52056,28.96473 c 0.18702,-0.0768 0.37769,-0.15084 0.55916,-0.20695 1.43028,-0.44221 2.57527,-0.41585 3.64224,0.16606 0.86795,0.47338 1.54671,1.27173 1.71789,2.41779 -1.60877,0.68846 -3.22543,1.32356 -4.89398,1.7663 -1.26842,0.33656 -1.99792,0.16661 -2.45442,-0.15038 -0.4565,-0.317 -0.73602,-0.87042 -0.82888,-1.5961 -0.0747,-0.5837 0.16955,-1.03599 0.71431,-1.50947 0.27238,-0.23674 0.62146,-0.44993 0.98583,-0.63579 0.18218,-0.0929 0.37082,-0.17466 0.55786,-0.25145 z"
         style="fill:none;fill-opacity:1;fill-rule:nonzero;stroke:#000000;stroke-width:0.26458332;stroke-opacity:1" />
      <flowRoot
         xml:space="preserve"
         id="flowRoot21"
         style="font-style:normal;font-weight:normal;font-size:40px;line-height:1.25;font-family:sans-serif;letter-spacing:0px;word-spacing:0px;fill:#000000;fill-opacity:1;stroke:none"
         transform="matrix(0.26910392,0,0,0.26458333,9.3919992,24.509622)"><flowRegion
           id="flowRegion23"><rect
             id="rect25"
             width="515"
             height="52.857128"
             x="6.4285712"
             y="441.91156" /></flowRegion><flowPara
           id="flowPara27"
           style="font-style:normal;font-variant:normal;font-weight:normal;font-stretch:normal;font-size:42.30677795px;font-family:'Vyper Bold Expanded';-inkscape-font-specification:'Vyper Bold Expanded, '"><flowSpan
             style="font-size:40.98469162px"
             id="flowSpan29" /></flowPara></flowRoot>    </g>
    <g
       inkscape:label="base Kopie"
       id="g51"
       transform="translate(3.0238052,-13.607006)">
      <path
         inkscape:connector-curvature="0"
         style="fill:none;fill-opacity:1;fill-rule:nonzero;stroke:#000000;stroke-width:0.26458332;stroke-opacity:1"
         d="m 60.139556,27.85501 c -11.03279,0.008 -19.97353,6.15675 -19.96777,13.74179 0.005,6.3967 6.3511,11.80427 14.98203,13.21263 1.79965,0.29366 2.81597,0.27803 3.88607,0.33073 0.2251,0.0112 0.41488,0.24381 0.40514,0.44649 -0.01,0.20267 -0.22138,0.42461 -0.44649,0.41341 -1.601,-0.0797 -1.80043,-0.0695 -2.99309,-0.1819 v 4.04316 l -2.02572,0.008 c -0.7855,0.003 -1.46676,0.62964 -1.42214,1.41387 l 1.67019,29.35221 c 0.0446,0.78423 0.63862,1.35804 1.42213,1.41387 13.81655,0.9844 27.80434,1.0429 41.96953,-0.0331 0.78324,-0.0595 1.37057,-0.62956 1.41387,-1.41387 l 1.620574,-29.35221 c 0.0433,-0.7843 -0.62838,-1.41387 -1.413864,-1.41387 h -1.62058 l -0.008,-5.21725 c -0.48247,0.0557 -1.0595,0.0831 -1.86035,0.0827 -0.23184,-1.2e-4 -0.44848,-0.2308 -0.44648,-0.43822 0.002,-0.20741 0.22296,-0.42631 0.45475,-0.42168 0.88354,0.0177 1.46875,0.0126 1.93477,-0.0992 6.285854,-1.50863 10.743974,-5.4975 10.740474,-10.12035 -0.005,-5.97609 -7.4665,-10.81355 -16.660484,-10.80658 -4.82129,0.004 -9.1648,1.34168 -12.20391,3.47266 0.57953,0.78419 1.07141,1.38189 1.62057,1.78593 0.55964,0.41175 1.18514,0.64625 2.15801,0.69454 0.22511,0.0112 0.41489,0.2438 0.40515,0.44648 -0.01,0.20268 -0.22139,0.42459 -0.44649,0.41341 -1.10107,-0.0547 -1.97141,-0.31187 -2.6293,-0.85989 -0.80242,-0.66843 -1.20266,-0.93519 -1.90996,-2.15801 -2.9501,-5.10032 -10.14068,-8.76248 -18.62833,-8.75604 z m 7.63984,38.86894 2.95176,0.0331 c 0.67261,0.008 1.20544,0.55107 1.19889,1.2237 l -0.17363,18.23144 c -0.007,0.67263 -0.55935,1.21527 -1.23196,1.20717 l -2.94349,-0.0331 c -0.67261,-0.008 -1.20544,-0.55108 -1.1989,-1.2237 l 0.17364,-18.23145 c 0.007,-0.67262 0.55108,-1.21526 1.22369,-1.20716 z m 15.53601,0.1571 c 3.73963,0.0372 6.72819,4.61009 6.67246,10.21953 -0.0557,5.60944 -3.123,10.12439 -6.86263,10.08724 -3.73963,-0.0371 -6.7282,-4.61009 -6.67246,-10.21953 0.0557,-5.60945 3.123,-10.1244 6.86263,-10.08724 z"
         id="path35" />
      <path
         style="fill:none;fill-opacity:1;fill-rule:nonzero;stroke:#000000;stroke-width:0.26458332;stroke-opacity:1"
         d="m 24.346396,85.42669 c -1.13828,0.0329 -2.53981,0.45601 -2.9931,1.56269 l -2.74506,6.69727 c -0.68473,1.67174 1.12144,3.60638 2.06706,3.99355 l 28.94707,11.84837 c 0.31712,-0.31612 0.75726,-0.51734 1.24024,-0.52916 1.00009,-0.0245 1.83586,0.78582 1.86035,1.78593 0.12215,0.0538 0.252,0.11475 0.35553,0.1571 0.94573,0.3869 2.01912,-0.0713 2.40606,-1.01699 l 1.16582,-2.85254 13.49375,5.52318 4.05143,-1.77767 -16.32975,-6.689 1.16582,-2.85254 c 0.38693,-0.94571 -0.0619,-2.03013 -1.00873,-2.41432 L 57.667356,98.722 c -0.32252,0.3791 -0.80271,0.62351 -1.33945,0.63665 -1.0001,0.0245 -1.8648,-0.86261 -1.84382,-1.9513 -9.97603,-4.13299 -19.84307,-8.12403 -28.86439,-11.80703 -0.29376,-0.11993 -0.75591,-0.18857 -1.2733,-0.17363 z m -0.0662,3.3817 c 0.55985,-0.0103 1.13659,0.0532 1.57923,0.23151 9.37773,3.77874 18.23033,7.44041 27.59108,11.26133 0.27109,0.11958 0.40018,0.49701 0.29765,0.74414 -0.10253,0.24713 -0.46155,0.42616 -0.73587,0.31419 L 25.528696,90.14784 h -0.008 c -1.15579,-0.46896 -2.0949,-0.20783 -2.62929,0.47129 -0.20193,0.25662 -0.62923,0.32403 -0.85163,0.14056 -0.22241,-0.18346 -0.24068,-0.62316 -0.0248,-0.86816 0.6813,-0.77321 1.53477,-1.06975 2.26549,-1.08314 z m -0.89297,5.45703 c 0.0761,-0.005 0.15119,0.008 0.23151,0.0413 9.35548,3.82122 18.22687,7.46418 27.58281,11.2944 0.27925,0.11432 0.42497,0.4998 0.32247,0.75241 -0.10251,0.25262 -0.47319,0.42856 -0.75241,0.31419 L 23.238396,95.38986 c -0.31494,-0.12899 -0.4464,-0.49986 -0.34726,-0.76068 0.0708,-0.18633 0.26791,-0.34986 0.49609,-0.3638 z m 66.74942,23.0849 -4.32429,1.66191 26.574094,10.88099 c 0.20352,0.87882 2.56124,2.4591 4.24987,3.23288 1.06508,0.48806 2.17458,0.88461 3.25768,1.33119 0.74292,-1.83694 1.49368,-3.67475 2.24896,-5.50664 -1.0868,-0.43755 -2.1406,-0.94468 -3.24941,-1.32292 -1.41113,-0.48136 -4.15632,-1.13287 -5.30821,-0.678 z"
         id="path37"
         inkscape:connector-curvature="0" />
      <path
         style="fill:none;fill-opacity:1;fill-rule:nonzero;stroke:#000000;stroke-width:0.26458332;stroke-opacity:1"
         d="m 97.321426,95.72414 -2.43846,1.06874 c -0.50104,0.21949 -0.72824,0.79288 -0.51021,1.29456 l 0.65912,1.51661 -2.64064,3.79812 c -11.72155,5.46698 -24.52793,11.52047 -36.7777,17.29072 -0.92439,0.43543 -1.35651,1.49484 -0.94523,2.43022 l 0.77873,1.77115 c -1.04971,0.50126 -2.09649,1.00336 -3.14204,1.48272 -0.34987,-1.45095 -1.30924,-2.62493 -2.52777,-3.26484 -1.45789,-0.76562 -3.13962,-0.82677 -4.93257,-0.27242 -0.45035,0.13924 -0.92477,0.32223 -1.38901,0.55858 -0.46425,0.23636 -0.9149,0.52759 -1.32115,0.88069 -0.8125,0.70619 -1.45904,1.77831 -1.2994,3.02589 0.13634,1.06545 0.61041,2.12312 1.56125,2.78337 0.95083,0.66026 2.28341,0.83004 3.87362,0.40809 1.34508,-0.35691 2.64654,-0.80324 3.92137,-1.30755 -0.0724,0.11719 -0.10308,0.23779 -0.18929,0.35273 -0.57729,0.76972 -1.46336,1.45117 -2.40594,1.91108 -3.85112,1.87908 -7.91238,3.87876 -11.97666,5.46647 l 0.6324,1.60035 c 4.15835,-1.62447 8.25126,-3.64227 12.09799,-5.5192 1.15494,-0.56353 2.24635,-1.38105 3.02977,-2.42561 0.51302,-0.68404 0.87279,-1.48711 1.01511,-2.35241 1.26247,-0.56434 2.50385,-1.15215 3.7411,-1.74308 l 0.52168,1.17967 c 0.41329,0.9345 1.47574,1.35382 2.41835,0.9594 12.40006,-5.18854 25.63331,-10.75041 37.68169,-15.23143 l 4.571854,0.64556 0.66668,1.51332 c 0.22053,0.5006 0.79356,0.7298 1.29456,0.51021 l 2.43846,-1.06875 c 0.50104,-0.21948 0.73651,-0.79646 0.51779,-1.29785 l -2.41664,-5.53992 30.84426,-13.47697 c 0.60527,-0.26449 0.88068,-0.96072 0.6174,-1.56652 l -0.50422,-1.16021 7.69022,-3.36019 c 0.5202,-0.22723 1.80532,-1.28352 1.57809,-1.80373 -0.22627,-0.52062 -1.87951,-0.29327 -2.39969,-0.066 l -7.6902,3.36018 -0.50423,-1.16021 c -0.26328,-0.6058 -0.96877,-0.87841 -1.57411,-0.6141 l -30.83996,13.46607 -2.424234,-5.53662 c -0.21949,-0.50105 -0.80114,-0.7265 -1.30214,-0.50691 z m -52.52056,28.96473 c 0.18702,-0.0768 0.37769,-0.15084 0.55916,-0.20695 1.43028,-0.44221 2.57527,-0.41585 3.64224,0.16606 0.86795,0.47338 1.54671,1.27173 1.71789,2.41779 -1.60877,0.68846 -3.22543,1.32356 -4.89398,1.7663 -1.26842,0.33656 -1.99792,0.16661 -2.45442,-0.15038 -0.4565,-0.317 -0.73602,-0.87042 -0.82888,-1.5961 -0.0747,-0.5837 0.16955,-1.03599 0.71431,-1.50947 0.27238,-0.23674 0.62146,-0.44993 0.98583,-0.63579 0.18218,-0.0929 0.37082,-0.17466 0.55786,-0.25145 z"
         id="path39"
         inkscape:connector-curvature="0"
         sodipodi:nodetypes="sssccssccasssssscssccssccssccsssscsscscscsscssssacssssss" />
      <flowRoot
         transform="matrix(0.26910392,0,0,0.26458333,9.3919992,24.509622)"
         style="font-style:normal;font-weight:normal;font-size:40px;line-height:1.25;font-family:sans-serif;letter-spacing:0px;word-spacing:0px;fill:#000000;fill-opacity:1;stroke:none"
         id="flowRoot49"
         xml:space="preserve"><flowRegion
           id="flowRegion43"><rect
             y="441.91156"
             x="6.4285712"
             height="52.857128"
             width="515"
             id="rect41" /></flowRegion><flowPara
           style="font-style:normal;font-variant:normal;font-weight:normal;font-stretch:normal;font-size:42.30677795px;font-family:'Vyper Bold Expanded';-inkscape-font-specification:'Vyper Bold Expanded, '"
           id="flowPara47" /></flowRoot>    </g>
  </g>
  <g
     transform="translate(-14.201104,-14.115395)"
     id="g97"
     inkscape:groupmode="layer"
     inkscape:label="Layer 1 Kopie"
     style="display:inline">
    <g
       transform="translate(3.0238052,-13.607006)"
       id="g95"
       inkscape:label="base Kopie">
      <path
         inkscape:connector-curvature="0"
         id="path81"
         d="m 24.346396,85.42669 c -1.13828,0.0329 -2.53981,0.45601 -2.9931,1.56269 l -2.74506,6.69727 c -0.68473,1.67174 1.12144,3.60638 2.06706,3.99355 l 28.94707,11.84837 c 0.31712,-0.31612 0.75726,-0.51734 1.24024,-0.52916 1.00009,-0.0245 1.83586,0.78582 1.86035,1.78593 0.12215,0.0538 0.252,0.11475 0.35553,0.1571 0.94573,0.3869 2.01912,-0.0713 2.40606,-1.01699 l 1.16582,-2.85254 13.49375,5.52318 4.05143,-1.77767 -16.32975,-6.689 1.16582,-2.85254 c 0.38693,-0.94571 -0.0619,-2.03013 -1.00873,-2.41432 L 57.667356,98.722 c -0.32252,0.3791 -0.80271,0.62351 -1.33945,0.63665 -1.0001,0.0245 -1.8648,-0.86261 -1.84382,-1.9513 -9.97603,-4.13299 -19.84307,-8.12403 -28.86439,-11.80703 -0.29376,-0.11993 -0.75591,-0.18857 -1.2733,-0.17363 z m -0.95917,8.83873 c 1.2e-5,6e-6 -1.2e-5,-3.5e-5 0,-4e-5 z m 66.74942,23.0849 -4.32429,1.66191 26.574094,10.88099 c 0.20352,0.87882 2.56124,2.4591 4.24987,3.23288 1.06508,0.48806 2.17458,0.88461 3.25768,1.33119 0.74292,-1.83694 1.49368,-3.67475 2.24896,-5.50664 -1.0868,-0.43755 -2.1406,-0.94468 -3.24941,-1.32292 -1.41113,-0.48136 -4.15632,-1.13287 -5.30821,-0.678 z"
         style="fill:none;fill-opacity:1;fill-rule:nonzero;stroke:#000000;stroke-width:0.26458332;stroke-opacity:1"
         sodipodi:nodetypes="cccccccccccccccccccccccccccccccc" />
      <path
         sodipodi:nodetypes="sssccssccasssssscssccssccssccsssscsscscscsscsss"
         inkscape:connector-curvature="0"
         id="path83"
         d="m 97.321426,95.72414 -2.43846,1.06874 c -0.50104,0.21949 -0.72824,0.79288 -0.51021,1.29456 l 0.65912,1.51661 -2.64064,3.79812 c -11.72155,5.46698 -24.52793,11.52047 -36.7777,17.29072 -0.92439,0.43543 -1.35651,1.49484 -0.94523,2.43022 l 0.77873,1.77115 c -1.04971,0.50126 -2.09649,1.00336 -3.14204,1.48272 -0.34987,-1.45095 -1.30924,-2.62493 -2.52777,-3.26484 -1.45789,-0.76562 -3.13962,-0.82677 -4.93257,-0.27242 -0.45035,0.13924 -0.92477,0.32223 -1.38901,0.55858 -0.46425,0.23636 -0.9149,0.52759 -1.32115,0.88069 -0.8125,0.70619 -1.45904,1.77831 -1.2994,3.02589 0.13634,1.06545 0.61041,2.12312 1.56125,2.78337 0.95083,0.66026 2.28341,0.83004 3.87362,0.40809 1.34508,-0.35691 2.64654,-0.80324 3.92137,-1.30755 -0.0724,0.11719 -0.10308,0.23779 -0.18929,0.35273 -0.57729,0.76972 -1.46336,1.45117 -2.40594,1.91108 -3.85112,1.87908 -7.91238,3.87876 -11.97666,5.46647 l 0.6324,1.60035 c 4.15835,-1.62447 8.25126,-3.64227 12.09799,-5.5192 1.15494,-0.56353 2.24635,-1.38105 3.02977,-2.42561 0.51302,-0.68404 0.87279,-1.48711 1.01511,-2.35241 1.26247,-0.56434 2.50385,-1.15215 3.7411,-1.74308 l 0.52168,1.17967 c 0.41329,0.9345 1.47574,1.35382 2.41835,0.9594 12.40006,-5.18854 25.63331,-10.75041 37.68169,-15.23143 l 4.571854,0.64556 0.66668,1.51332 c 0.22053,0.5006 0.79356,0.7298 1.29456,0.51021 l 2.43846,-1.06875 c 0.50104,-0.21948 0.73651,-0.79646 0.51779,-1.29785 l -2.41664,-5.53992 30.84426,-13.47697 c 0.60527,-0.26449 0.88068,-0.96072 0.6174,-1.56652 l -0.50422,-1.16021 7.69022,-3.36019 c 0.5202,-0.22723 1.80532,-1.28352 1.57809,-1.80373 -0.22627,-0.52062 -1.87951,-0.29327 -2.39969,-0.066 l -7.6902,3.36018 -0.50423,-1.16021 c -0.26328,-0.6058 -0.96877,-0.87841 -1.57411,-0.6141 l -30.83996,13.46607 -2.424234,-5.53662 c -0.21949,-0.50105 -0.80114,-0.7265 -1.30214,-0.50691 z"
         style="fill:none;fill-opacity:1;fill-rule:nonzero;stroke:#000000;stroke-width:0.26458332;stroke-opacity:1" />
      <flowRoot
         xml:space="preserve"
         id="flowRoot93"
         style="font-style:normal;font-weight:normal;font-size:40px;line-height:1.25;font-family:sans-serif;letter-spacing:0px;word-spacing:0px;fill:none;fill-opacity:1;stroke:#000000;stroke-opacity:1"
         transform="matrix(0.26910392,0,0,0.26458333,9.5809874,22.430753)"><flowRegion
           id="flowRegion87"
           style="fill:none;stroke:#000000;stroke-opacity:1"><rect
             id="rect85"
             width="515"
             height="52.857128"
             x="6.4285712"
             y="441.91156"
             style="fill:none;stroke:#000000;stroke-opacity:1" /></flowRegion><flowPara
           id="flowPara91"
           style="font-style:normal;font-variant:normal;font-weight:normal;font-stretch:normal;font-size:42.30677795px;font-family:'Vyper Bold Expanded';-inkscape-font-specification:'Vyper Bold Expanded, ';fill:none;stroke:#000000;stroke-opacity:1"><flowSpan
   style="font-size:40.98469162px;fill:none;stroke:#000000;stroke-opacity:1"
   id="flowSpan89">Binary </flowSpan>Kitchen</flowPara></flowRoot>    </g>
    <path
       id="rect4607"
       style="fill:none;stroke:#000000;stroke-width:0.26458332;stroke-opacity:1"
       d="m 56.450493,62.671532 h 1.273706 l 11.775979,-0.0149 m 5.374451,0.03878 4.62349,-0.01198 m 13.497189,-0.07081 c 3.674388,0.02458 6.332885,0.05625 9.851532,0.06438 m 0.0168,0.991988 c -3.496673,-0.03003 -6.078653,-0.112366 -9.791702,-0.154819 m -13.589448,0.173802 -4.617351,0.0024 m -5.374711,-0.0091 -12.998164,-0.0075 m 0,0 0.75935,13.354602 c 0.0446,0.78423 0.63862,1.35804 1.42213,1.41387 13.81655,0.9844 27.80434,1.0429 41.969536,-0.0331 0.78324,-0.0595 1.37057,-0.62956 1.41387,-1.41387 l 0.80649,-13.326285 m -0.0168,-0.991988 0.83088,-15.033937 c 0.0433,-0.7843 -0.62838,-1.41387 -1.41387,-1.41387 h -1.62058 l -0.008,-5.21725 c -0.48247,0.0557 -1.059506,0.0831 -1.860356,0.0827 -0.23184,-1.2e-4 -0.44848,-0.2308 -0.44648,-0.43822 0.002,-0.20741 0.22296,-0.42631 0.45475,-0.42168 0.88354,0.0177 1.468756,0.0126 1.934776,-0.0992 6.28586,-1.50863 10.74398,-5.4975 10.74048,-10.12035 -0.005,-5.97609 -7.4665,-10.81355 -16.660496,-10.80658 -4.82129,0.004 -9.1648,1.34168 -12.20391,3.47266 0.57953,0.78419 1.07141,1.38189 1.62057,1.78593 0.55964,0.41175 1.18514,0.64625 2.15801,0.69454 0.22511,0.0112 0.41489,0.2438 0.40515,0.44648 -0.01,0.20268 -0.22139,0.42459 -0.44649,0.41341 -1.10107,-0.0547 -1.97141,-0.31187 -2.6293,-0.85989 -0.80242,-0.66843 -1.20266,-0.93519 -1.90996,-2.15801 -2.9501,-5.10032 -10.14068,-8.76248 -18.62833,-8.75604 l -2.95e-4,2.9e-4 c -11.03279,0.008 -19.97353,6.15675 -19.96777,13.74179 0.005,6.3967 6.3511,11.80427 14.98203,13.21263 1.79965,0.29366 2.81597,0.27803 3.88607,0.33073 0.2251,0.0112 0.41488,0.24381 0.40514,0.44649 -0.01,0.20267 -0.22138,0.42461 -0.44649,0.41341 -1.601,-0.0797 -1.80043,-0.0695 -2.99309,-0.1819 v 4.04316 l -2.02572,0.008 c -0.7855,0.003 -1.46676,0.62964 -1.42214,1.41387 l 0.835095,14.676105 0.03398,0.319246 m 13.049685,-0.0149 0.07936,-8.332528 c 0.007,-0.67262 0.55108,-1.21526 1.22369,-1.20716 l 2.95176,0.0331 c 0.67261,0.008 1.20544,0.55107 1.19889,1.2237 l -0.07925,8.321668 m -0.0095,0.994988 -0.0849,8.914784 c -0.007,0.67263 -0.55935,1.21527 -1.23196,1.20717 l -2.94349,-0.0331 c -0.67261,-0.008 -1.20544,-0.55108 -1.1989,-1.2237 m 0,0 0.08452,-8.874261 m 16.84882,-10.407249 c 3.541817,0.03523 6.40992,4.139002 6.656089,9.33859 m 0.07662,0.901553 c -0.0557,5.60944 -3.183249,10.103777 -6.922879,10.066627 -3.73963,-0.0371 -6.675059,-4.28341 -6.619319,-9.89285 m -0.03161,-1.00452 c 0.284433,-5.290853 3.253352,-9.445051 6.841096,-9.4094"
       inkscape:connector-curvature="0"
       sodipodi:nodetypes="cccccccccccccccccccccscccscccccsccccccccsccccccccccccccccccccccccccccc" />
  </g>
</svg>
