<?xml version="1.0" encoding="UTF-8" standalone="no"?>
<svg
   xmlns:dc="http://purl.org/dc/elements/1.1/"
   xmlns:cc="http://creativecommons.org/ns#"
   xmlns:rdf="http://www.w3.org/1999/02/22-rdf-syntax-ns#"
   xmlns:svg="http://www.w3.org/2000/svg"
   xmlns="http://www.w3.org/2000/svg"
   width="157.9839mm"
   height="138.25571mm"
   viewBox="0 0 157.9839 138.25571"
   version="1.1"
   id="svg8">
  <defs
     id="defs2" />
  <metadata
     id="metadata5">
    <rdf:RDF>
      <cc:Work
         rdf:about="">
        <dc:format>image/svg+xml</dc:format>
        <dc:type
           rdf:resource="http://purl.org/dc/dcmitype/StillImage" />
        <dc:title></dc:title>
      </cc:Work>
    </rdf:RDF>
  </metadata>
  <g
     transform="translate(-21.64784,-3.7443994)"
     id="layer1"
     style="display:none">
    <rect
       style="fill:#ffffff;fill-opacity:1;fill-rule:nonzero;stroke:none;stroke-width:0.26458332"
       id="rect4950"
       width="39.534492"
       height="29.864185"
       x="80.769852"
       y="51.887638"
       ry="0.91054827" />
    <g
       transform="matrix(0.31226835,0,0,0.31226835,7.73338,-155.91728)"
       id="g4382"
       style="stroke:#ffffff;stroke-width:32.54361725;stroke-miterlimit:4;stroke-dasharray:none">
      <path
         style="fill:#000000;fill-opacity:1;fill-rule:nonzero;stroke:#ffffff;stroke-width:32.54361725;stroke-miterlimit:4;stroke-dasharray:none"
         d="m 234.25,532.42468 c -41.69872,0.0316 -75.49049,23.26963 -75.46875,51.9375 0.0184,24.17651 24.00416,44.61455 56.625,49.9375 6.80185,1.1099 10.64306,1.05083 14.6875,1.25 0.85078,0.0424 1.56808,0.92147 1.53125,1.6875 -0.0368,0.76603 -0.83672,1.60483 -1.6875,1.5625 -6.05104,-0.30107 -6.80481,-0.26271 -11.3125,-0.6875 v 15.28125 l -7.65625,0.0312 c -2.9688,0.0121 -5.54366,2.37975 -5.375,5.34375 l 6.3125,110.9375 c 0.16865,2.96401 2.41369,5.13276 5.375,5.34375 52.22003,3.72057 105.08725,3.94168 158.625,-0.125 2.96026,-0.22486 5.18009,-2.37945 5.34375,-5.34375 l 6.125,-110.9375 c 0.16366,-2.96427 -2.37498,-5.34375 -5.34375,-5.34375 h -6.125 l -0.0312,-19.71875 c -1.82352,0.21066 -4.00443,0.31409 -7.03125,0.3125 -0.87624,-4.6e-4 -1.69504,-0.87231 -1.6875,-1.65625 0.008,-0.78393 0.84268,-1.61127 1.71875,-1.59375 3.33937,0.0668 5.55119,0.0477 7.3125,-0.375 23.7574,-5.70175 40.60699,-20.77781 40.59375,-38.25 -0.0171,-22.58679 -28.21986,-40.8701 -62.96875,-40.84375 -18.22221,0.0138 -34.63862,5.07093 -46.125,13.125 2.19033,2.9639 4.0494,5.22289 6.125,6.75 2.11514,1.5562 4.47924,2.44251 8.15625,2.625 0.85079,0.0422 1.56808,0.92147 1.53125,1.6875 -0.0368,0.76604 -0.83672,1.60476 -1.6875,1.5625 -4.16153,-0.20668 -7.45101,-1.17873 -9.9375,-3.25 -3.03278,-2.52634 -4.5455,-3.53454 -7.21875,-8.15625 -11.14998,-19.27679 -38.32701,-33.11802 -70.4063,-33.0937 z m 28.875,146.90625 11.15625,0.125 c 2.54215,0.0306 4.556,2.0828 4.53125,4.625 l -0.65625,68.90625 c -0.0248,2.54221 -2.11409,4.59313 -4.65625,4.5625 l -11.125,-0.125 c -2.54215,-0.0306 -4.55599,-2.08279 -4.53125,-4.625 L 258.5,683.89343 c 0.0248,-2.5422 2.08285,-4.59313 4.625,-4.5625 z m 58.71875,0.59375 c 14.13405,0.14043 25.42939,17.42396 25.21875,38.625 -0.21064,21.20105 -11.80345,38.26542 -25.9375,38.125 -14.13403,-0.14043 -25.42939,-17.42394 -25.21875,-38.625 0.21064,-21.20104 11.80347,-38.26543 25.9375,-38.125 z"
         id="path4384" />
      <path
         id="path4386"
         d="m 103.77749,754.66069 c -3.55296,-1.45051 -13.64166,-0.8173 -16.13363,5.26669 l -10.36441,25.304 c -2.58798,6.3184 4.24731,13.63401 7.8213,15.09733 l 109.41419,44.79823 c 1.19855,-1.1948 2.83493,-1.97733 4.66036,-2.02201 3.77989,-0.0925 6.95812,2.99278 7.05068,6.77274 0.46168,0.20327 0.94705,0.42088 1.33834,0.58096 3.57439,1.46228 7.63072,-0.26949 9.09315,-3.8438 l 4.41432,-10.78902 210.65391,86.25081 c 0.7692,3.32152 9.6854,9.30008 16.0676,12.2246 4.0255,1.84463 8.2026,3.33803 12.2962,5.02589 2.8079,-6.94275 5.6552,-13.86947 8.5098,-20.79317 -4.1076,-1.65371 -8.1055,-3.59632 -12.2963,-5.02589 -5.3334,-1.8193 -15.7138,-4.26659 -20.0674,-2.54738 l -210.5784,-86.25672 4.41432,-10.78903 c 1.46244,-3.57434 -0.25254,-7.67246 -3.83107,-9.12454 l -1.31881,-0.53514 c -1.21896,1.43281 -3.04265,2.35418 -5.07127,2.40383 -3.77991,0.0925 -7.06641,-3.25306 -6.98711,-7.36778 -37.70469,-15.62075 -74.98944,-30.7106 -109.08577,-44.6306 z m 0.89661,13.01671 c 35.44338,14.28186 68.90821,28.12418 104.28742,42.56546 1.02459,0.45196 1.51573,1.88209 1.12822,2.81614 -0.38752,0.93405 -1.75364,1.61357 -2.79043,1.19039 l -103.84788,-42.38711 -0.0313,-0.0127 c -4.36835,-1.77246 -7.91901,-0.7849 -9.93876,1.78188 -0.7632,0.9699 -2.38474,1.22636 -3.22533,0.53294 -0.84059,-0.69342 -0.9059,-2.34187 -0.09,-3.26784 2.57498,-2.92235 5.77889,-4.05392 8.54069,-4.10454 2.116,-0.0388 4.29441,0.21126 5.96737,0.88538 z m -8.44288,19.90602 c 35.3593,14.44238 68.87543,28.21459 104.23647,42.69104 1.05541,0.43208 1.613,1.88302 1.22559,2.83779 -0.38742,0.95478 -1.80112,1.61369 -2.85646,1.18146 L 94.78874,791.6791 c -1.19033,-0.48752 -1.68884,-1.89211 -1.31416,-2.87788 0.3569,-0.93901 1.54232,-1.71378 2.75664,-1.2178 z"
         style="fill:#000000;fill-opacity:1;fill-rule:nonzero;stroke:#ffffff;stroke-width:32.54361725;stroke-miterlimit:4;stroke-dasharray:none" />
      <g
         id="g4388"
         transform="matrix(0.99372469,-0.43404267,0.43404267,0.99372469,-212.28056,469.90379)"
         style="fill:#000000;stroke:#ffffff;stroke-width:30.01124573;stroke-miterlimit:4;stroke-dasharray:none">
        <path
           id="path4390"
           transform="matrix(0.92218368,0.00169429,-0.00169429,0.92218368,-452.50678,78.944729)"
           d="m 900.1875,443.75 -10.0625,0.0312 c -2.06742,0.006 -3.71875,1.65132 -3.71875,3.71875 v 6.25 l -14.875,9.1875 C 822.66476,464.22979 769.15433,465.92087 718,467.4687 c -3.86018,0.1168 -6.954,3.13809 -6.9375,7 l 0.0312,7.3125 c -4.39379,0.1562 -8.77864,0.31969 -13.125,0.40625 0.97303,-5.55653 -0.58392,-11.07117 -3.84375,-15.125 -3.90015,-4.85012 -9.63745,-7.59553 -16.6875,-8.375 -1.77081,-0.19579 -3.69096,-0.27617 -5.65625,-0.15625 -1.96529,0.11992 -3.96613,0.45055 -5.90625,1.0625 -3.88023,1.22388 -7.73646,3.96623 -9.0625,8.53125 -1.13246,3.89857 -1.08251,8.27896 1.21875,12 2.30126,3.72104 6.66466,6.31703 12.8125,7.25 5.20014,0.78916 10.38378,1.20262 15.5625,1.375 -0.42767,0.29707 -0.71554,0.66894 -1.1875,0.9375 -3.16064,1.79846 -7.2586,2.82575 -11.21875,3 -16.17998,0.71196 -33.27007,1.52537 -49.75,0.90625 l -0.21875,6.5 c 16.86139,0.63344 34.08845,-0.19511 50.25,-0.90625 4.85233,-0.21352 9.86708,-1.40312 14.15625,-3.84375 2.80877,-1.59825 5.26565,-3.83995 7.0625,-6.625 5.2263,-0.0543 10.41482,-0.22176 15.59375,-0.40625 l 0.0312,4.875 c 0.0248,3.86187 3.07592,6.91592 6.9375,6.96875 50.79894,0.69498 105.04842,1.35105 153.5625,3.96875 l 14.875,9.125 0.0312,6.25 c 0.0103,2.06745 1.65133,3.72517 3.71875,3.71875 l 10.0625,-0.0312 c 2.06742,-0.006 3.75283,-1.65128 3.75,-3.71875 l -0.0312,-22.84375 127.21875,-0.25 c 2.4965,-0.005 4.5,-2.00347 4.5,-4.5 v -4.78125 l 31.7188,-0.0625 c 2.1455,-0.004 8.1914,-1.72948 8.1874,-3.875 0,-2.14552 -6.0732,-3.84798 -8.2187,-3.84375 l -31.7187,0.0625 v -4.78125 c 0,-2.49653 -2.0348,-4.50429 -4.5313,-4.5 L 904,470.3125 903.9375,447.46875 c -0.006,-2.06743 -1.68258,-3.72517 -3.75,-3.71875 z M 674.5,465.03125 c 0.76399,0.0155 1.53642,0.0461 2.25,0.125 5.62398,0.62179 9.55318,2.43804 12.375,6.0625 2.29548,2.94841 3.4456,6.73828 2.3125,10.96875 -6.61366,-0.0371 -13.17428,-0.27106 -19.625,-1.25 -4.90375,-0.74418 -7.17641,-2.43226 -8.28125,-4.21875 -1.10484,-1.78649 -1.24006,-4.12594 -0.46875,-6.78125 0.62042,-2.13582 2.1484,-3.33567 4.75,-4.15625 1.3008,-0.41029 2.83201,-0.6234 4.375,-0.71875 0.77149,-0.0477 1.54851,-0.0468 2.3125,-0.0312 z"
           style="fill:#000000;fill-opacity:1;fill-rule:nonzero;stroke:#ffffff;stroke-width:32.54361725;stroke-miterlimit:4;stroke-dasharray:none" />
      </g>
    </g>
    <path
       style="fill:#000000;fill-opacity:1;fill-rule:nonzero;stroke:#ffffff;stroke-width:0.31226835"
       d="m 80.88224,10.342096 c -13.021191,0.0099 -23.573291,7.266369 -23.566502,16.218438 0.0057,7.549559 7.495739,13.931712 17.682195,15.5939 2.124003,0.346587 3.323491,0.328141 4.586442,0.390336 0.265671,0.01324 0.489661,0.287746 0.47816,0.526953 -0.01149,0.239207 -0.261281,0.501137 -0.526952,0.487919 -1.889549,-0.09401 -2.124927,-0.08204 -3.532536,-0.214684 v 4.77185 l -2.390805,0.0097 c -0.927062,0.0038 -1.731109,0.743121 -1.678442,1.668684 l 1.971194,34.64227 c 0.05266,0.925567 0.753719,1.602799 1.678442,1.668684 16.306663,1.161816 32.815424,1.230862 49.533564,-0.03903 0.9244,-0.07022 1.61758,-0.743027 1.66869,-1.668684 l 1.91264,-34.64227 c 0.0511,-0.925648 -0.74163,-1.668684 -1.66868,-1.668684 H 125.117 l -0.01,-6.157542 c -0.56943,0.06578 -1.25046,0.09808 -2.19564,0.09758 -0.27362,-1.44e-4 -0.5293,-0.272395 -0.52695,-0.517195 0.002,-0.244796 0.26314,-0.503148 0.53671,-0.497677 1.04278,0.02086 1.73346,0.0149 2.28346,-0.117101 7.41869,-1.780476 12.68028,-6.488252 12.67615,-11.944264 -0.005,-7.05314 -8.81217,-12.762439 -19.66315,-12.754211 -5.69022,0.0043 -10.81654,1.583491 -14.40338,4.098522 0.68397,0.925533 1.2645,1.630944 1.91265,2.107812 0.66049,0.485952 1.39872,0.762718 2.54693,0.819704 0.26568,0.01318 0.48967,0.287746 0.47817,0.526953 -0.0115,0.23921 -0.26129,0.501116 -0.52696,0.487919 -1.29951,-0.06454 -2.32671,-0.36808 -3.10316,-1.014872 -0.94705,-0.788896 -1.41942,-1.103725 -2.25419,-2.546939 C 99.386113,14.65668 90.899587,10.334502 80.88224,10.342096 Z m 9.016748,45.874173 3.483744,0.03903 c 0.793833,0.0096 1.422695,0.650393 1.414966,1.444241 l -0.204926,21.517241 c -0.0077,0.793852 -0.660163,1.434289 -1.453999,1.424725 l -3.473986,-0.03903 c -0.793833,-0.0096 -1.422691,-0.650389 -1.414966,-1.444241 l 0.204926,-21.517241 c 0.0077,-0.793849 0.650409,-1.434289 1.444241,-1.424725 z M 108.235,56.401678 c 4.41361,0.04385 7.94079,5.440951 7.87501,12.061365 -0.0658,6.620417 -3.68584,11.94908 -8.09946,11.905231 -4.41361,-0.04385 -7.94079,-5.440945 -7.87501,-12.061365 0.0658,-6.620414 3.68585,-11.949083 8.09946,-11.905231 z"
       id="path3021" />
    <path
       id="use3078"
       d="m 40.139804,79.739368 c -1.109476,-0.452948 -4.259858,-0.255216 -5.038022,1.644621 l -3.236477,7.901638 c -0.808144,1.973037 1.326301,4.25747 2.442345,4.714419 l 34.166588,13.989074 c 0.374269,-0.3731 0.885259,-0.61746 1.455283,-0.63141 1.18034,-0.0289 2.172801,0.93455 2.201704,2.11491 0.144168,0.0635 0.295734,0.13143 0.417922,0.18141 1.116168,0.45663 2.382832,-0.0842 2.839503,-1.20029 l 1.378452,-3.36907 65.780548,26.93339 c 0.2402,1.03721 3.02444,2.90413 5.0174,3.81736 1.25704,0.57602 2.56142,1.04236 3.83972,1.56943 0.87682,-2.168 1.76594,-4.331 2.65734,-6.49305 -1.28267,-0.5164 -2.53109,-1.12302 -3.83975,-1.56943 -1.66545,-0.56811 -4.90692,-1.33232 -6.26641,-0.79546 l -65.75697,-26.93525 1.378453,-3.369071 c 0.456674,-1.116153 -0.07886,-2.395866 -1.196322,-2.849305 l -0.411823,-0.167107 c -0.380642,0.447421 -0.950123,0.735136 -1.583597,0.75064 -1.180346,0.02889 -2.206616,-1.015828 -2.181853,-2.300725 C 62.429857,88.798226 50.787009,84.086144 40.139804,79.739368 Z m 0.279983,4.064707 c 11.067846,4.459773 21.517853,8.782291 32.565661,13.291846 0.319947,0.141133 0.473314,0.587717 0.352307,0.879391 -0.12101,0.291675 -0.547606,0.503867 -0.871363,0.371722 l -32.428406,-13.236153 -0.0098,-0.004 c -1.364097,-0.553483 -2.472856,-0.2451 -3.10356,0.556425 -0.238323,0.302869 -0.744679,0.382953 -1.007168,0.16642 -0.26249,-0.216533 -0.282884,-0.731292 -0.02811,-1.020443 0.804085,-0.912558 1.804565,-1.265911 2.666988,-1.281718 0.660759,-0.01212 1.341008,0.06597 1.86342,0.276476 z m -2.636444,6.21602 c 11.04159,4.509898 21.507617,8.810524 32.549751,13.331065 0.329571,0.13492 0.503689,0.588 0.382713,0.88615 -0.120979,0.29815 -0.562433,0.5039 -0.891982,0.36893 L 37.332902,91.299046 C 36.9612,91.146809 36.805531,90.7082 36.922532,90.400375 c 0.111448,-0.293223 0.481617,-0.535159 0.860811,-0.38028 z"
       style="fill:#000000;fill-opacity:1;fill-rule:nonzero;stroke:#ffffff;stroke-width:0.31226835" />
    <g
       id="use3083"
       transform="matrix(0.31030877,-0.13553779,0.13553779,0.31030877,-58.555121,-9.1811988)"
       style="fill:#000000;stroke:#ffffff">
      <path
         id="path4374"
         transform="matrix(0.92218368,0.00169429,-0.00169429,0.92218368,-452.50678,78.944729)"
         d="m 900.1875,443.75 -10.0625,0.0312 c -2.06742,0.006 -3.71875,1.65132 -3.71875,3.71875 v 6.25 l -14.875,9.1875 C 822.66476,464.22979 769.15433,465.92087 718,467.4687 c -3.86018,0.1168 -6.954,3.13809 -6.9375,7 l 0.0312,7.3125 c -4.39379,0.1562 -8.77864,0.31969 -13.125,0.40625 0.97303,-5.55653 -0.58392,-11.07117 -3.84375,-15.125 -3.90015,-4.85012 -9.63745,-7.59553 -16.6875,-8.375 -1.77081,-0.19579 -3.69096,-0.27617 -5.65625,-0.15625 -1.96529,0.11992 -3.96613,0.45055 -5.90625,1.0625 -3.88023,1.22388 -7.73646,3.96623 -9.0625,8.53125 -1.13246,3.89857 -1.08251,8.27896 1.21875,12 2.30126,3.72104 6.66466,6.31703 12.8125,7.25 5.20014,0.78916 10.38378,1.20262 15.5625,1.375 -0.42767,0.29707 -0.71554,0.66894 -1.1875,0.9375 -3.16064,1.79846 -7.2586,2.82575 -11.21875,3 -16.17998,0.71196 -33.27007,1.52537 -49.75,0.90625 l -0.21875,6.5 c 16.86139,0.63344 34.08845,-0.19511 50.25,-0.90625 4.85233,-0.21352 9.86708,-1.40312 14.15625,-3.84375 2.80877,-1.59825 5.26565,-3.83995 7.0625,-6.625 5.2263,-0.0543 10.41482,-0.22176 15.59375,-0.40625 l 0.0312,4.875 c 0.0248,3.86187 3.07592,6.91592 6.9375,6.96875 50.79894,0.69498 105.04842,1.35105 153.5625,3.96875 l 14.875,9.125 0.0312,6.25 c 0.0103,2.06745 1.65133,3.72517 3.71875,3.71875 l 10.0625,-0.0312 c 2.06742,-0.006 3.75283,-1.65128 3.75,-3.71875 l -0.0312,-22.84375 127.21875,-0.25 c 2.4965,-0.005 4.5,-2.00347 4.5,-4.5 v -4.78125 l 31.7188,-0.0625 c 2.1455,-0.004 8.1914,-1.72948 8.1874,-3.875 0,-2.14552 -6.0732,-3.84798 -8.2187,-3.84375 l -31.7187,0.0625 v -4.78125 c 0,-2.49653 -2.0348,-4.50429 -4.5313,-4.5 L 904,470.3125 903.9375,447.46875 c -0.006,-2.06743 -1.68258,-3.72517 -3.75,-3.71875 z M 674.5,465.03125 c 0.76399,0.0155 1.53642,0.0461 2.25,0.125 5.62398,0.62179 9.55318,2.43804 12.375,6.0625 2.29548,2.94841 3.4456,6.73828 2.3125,10.96875 -6.61366,-0.0371 -13.17428,-0.27106 -19.625,-1.25 -4.90375,-0.74418 -7.17641,-2.43226 -8.28125,-4.21875 -1.10484,-1.78649 -1.24006,-4.12594 -0.46875,-6.78125 0.62042,-2.13582 2.1484,-3.33567 4.75,-4.15625 1.3008,-0.41029 2.83201,-0.6234 4.375,-0.71875 0.77149,-0.0477 1.54851,-0.0468 2.3125,-0.0312 z"
         style="fill:#000000;fill-opacity:1;fill-rule:nonzero;stroke:#ffffff" />
    </g>
  </g>
  <g
     transform="translate(-21.64784,-3.7443994)"
     id="layer4"
     style="display:none">
    <path
       style="display:inline;fill:#ffffff;fill-opacity:1;fill-rule:nonzero;stroke:#000000;stroke-width:0.71200001;stroke-miterlimit:4;stroke-dasharray:none;stroke-opacity:1"
       d="m 80.941593,10.354997 c -13.0212,0.01 -23.573296,7.26637 -23.566507,16.21844 0.0057,7.54956 7.495737,13.93171 17.682197,15.5939 2.124,0.34659 3.32349,0.32814 4.58644,0.39034 0.26567,0.0132 0.48966,0.28774 0.47816,0.52695 -0.0115,0.23921 -0.26128,0.50114 -0.52695,0.48792 -1.88955,-0.094 -2.12493,-0.082 -3.53254,-0.21468 v 4.77185 l -2.3908,0.01 c -0.92706,0.004 -1.73111,0.74312 -1.67844,1.66868 l 1.97119,34.64227 c 0.0527,0.92557 0.75372,1.6028 1.67844,1.66868 16.30666,1.16182 32.815437,1.23087 49.533577,-0.039 0.9244,-0.0702 1.61758,-0.74302 1.66869,-1.66868 l 1.91264,-34.64227 c 0.0511,-0.92565 -0.74163,-1.66869 -1.66868,-1.66869 h -1.91265 l -0.01,-6.15754 c -0.56943,0.0658 -1.25046,0.0981 -2.19564,0.0976 -0.27362,-1.4e-4 -0.5293,-0.27239 -0.52695,-0.51719 0.002,-0.2448 0.26314,-0.50315 0.53671,-0.49768 1.04278,0.0209 1.73346,0.0149 2.28346,-0.1171 7.41869,-1.78048 12.68028,-6.48825 12.67615,-11.94427 -0.005,-7.05314 -8.81217,-12.76243 -19.66315,-12.75421 -5.69022,0.004 -10.81654,1.58349 -14.40338,4.09853 0.68397,0.92553 1.2645,1.63094 1.91265,2.10781 0.66049,0.48595 1.39872,0.76272 2.54693,0.8197 0.26568,0.0132 0.48967,0.28775 0.47817,0.52695 -0.0115,0.23921 -0.26129,0.50112 -0.52696,0.48792 -1.29951,-0.0645 -2.32671,-0.36808 -3.10316,-1.01487 -0.94705,-0.78889 -1.41943,-1.10372 -2.25419,-2.54694 -3.481534,-6.01948 -11.968067,-10.34166 -21.985407,-10.33407 z m 9.01674,45.87418 3.48375,0.039 c 0.79383,0.01 1.42269,0.65039 1.41496,1.44424 l -0.20492,21.51724 c -0.008,0.79385 -0.66017,1.43429 -1.454,1.42472 l -3.47399,-0.039 c -0.79383,-0.01 -1.42269,-0.65039 -1.41496,-1.44424 l 0.20492,-21.51724 c 0.008,-0.79385 0.65041,-1.43429 1.44424,-1.42473 z m 18.336017,0.1854 c 4.41361,0.0438 7.9408,5.44096 7.87502,12.06137 -0.0658,6.62042 -3.68584,11.94908 -8.09946,11.90523 -4.41361,-0.0438 -7.9408,-5.44094 -7.87501,-12.06136 0.0658,-6.62042 3.68585,-11.94909 8.09945,-11.90524 z"
       id="path3021-7" />
  </g>
  <g
     transform="translate(-21.64784,-3.7443994)"
     id="layer5">
    <g
       transform="translate(3.6437331,-1.8639806)"
       style="display:inline"
       id="g4200">
      <g
         id="g4256">
        <g
           id="g4236"
           style="display:inline">
          <path
             id="path4221"
             d="m 105.50093,20.425621 c -0.46136,-0.05296 -1.12524,-0.140801 -1.42858,-0.244872 -0.59028,-0.167842 -1.03586,-0.417255 -1.38121,-0.743292 -0.88739,-0.776549 -1.17848,-1.068343 -2.00107,-2.394491 C 99.531912,15.225018 97.763067,12.915648 94.756644,10.88143 91.328357,8.4953178 86.321288,6.513163 78.850927,6.0086928 a 0.01524433,3.5734315e-5 3.0483322 0 0 -0.01749,-8.906e-4 c -6.711455,-0.3600097 -13.40688,1.5509096 -18.31681,4.7653058 -2.454117,1.606643 -4.522179,3.578988 -5.894666,5.810479 -1.380987,2.245312 -2.078106,4.793249 -1.722023,7.460579 l -0.0056,-0.04237 c 0.702215,6.443516 4.090939,10.365857 7.837913,12.785743 1.84299,1.190247 3.758466,2.010254 5.432419,2.605082 1.627555,0.578341 3.183885,0.990491 4.033405,1.263676 1.178178,0.399697 2.450559,0.638184 3.551423,0.800218 1.054007,0.155137 2.152268,0.26349 2.701442,0.349712 -4.61e-4,-2.2e-5 0.05754,0.0028 0.05708,0.0028 a 2.420184,2.420184 90 0 0 0.238106,-4.834508 c -8.93e-4,-4.4e-5 -0.06562,-0.0032 -0.06651,-0.0032 -0.70713,0.03362 -1.550437,0.07121 -2.547655,0.05099 -0.980936,-0.01989 -1.966508,-0.09662 -2.830287,-0.271272 -1.087952,-0.272016 -2.360415,-0.53828 -3.919898,-1.023377 -1.515501,-0.471415 -3.153682,-1.111837 -4.709971,-2.044853 -3.049119,-1.827988 -5.842481,-4.803034 -6.537141,-10.068138 a 0.10007301,8.6651337e-5 82.485343 0 0 -0.0056,-0.04237 c -0.29605,-1.799228 0.09839,-3.6243 1.127512,-5.411813 1.036782,-1.800819 2.6959,-3.517646 4.856701,-5.007311 4.319941,-2.978184 10.410816,-4.8842383 16.612212,-4.6791826 l -0.01748,-8.9e-4 c 7.100512,0.341121 11.760589,2.0715856 14.90969,4.1006846 2.718316,1.808069 4.336597,3.87277 5.425951,5.533167 0.98782,1.472211 1.49995,1.900428 2.50729,2.699389 0.63333,0.488486 1.36181,0.780969 2.15846,0.935575 0.49065,0.08624 1.24104,0.110526 1.72101,0.106002 a 0.7120006,0.7120006 90 0 0 0.0706,-1.42225 z"
             style="display:inline;fill:none;fill-opacity:1;fill-rule:nonzero;stroke:#000000;stroke-width:0.71200001;stroke-miterlimit:4;stroke-dasharray:none;stroke-opacity:1" />
          <path
             id="path4225"
             d="m 122.00133,39.432454 c 0.099,0.002 0.19781,0.003 0.29629,0.003 0.51797,0.01273 1.04533,0.0011 1.50344,-0.02931 0.44584,-0.02958 0.90329,-0.08224 1.24624,-0.152629 3.90589,-0.923301 7.34114,-2.63644 9.81528,-4.912379 2.48528,-2.286188 4.07468,-5.21917 4.08612,-8.482268 4.9e-4,-0.188117 -0.004,-0.375571 -0.0141,-0.562216 -0.29419,-3.984722 -2.88317,-7.277462 -6.51282,-9.533003 -3.81587,-2.371261 -8.96459,-3.727645 -14.56904,-3.650891 -5.99672,0.150557 -10.06251,2.427794 -13.6178,5.098268 a 0.71200042,0.71200042 90 0 0 0.81754,1.165936 c 3.62142,-2.361376 7.41525,-4.108223 12.80194,-3.967436 5.24603,0.06899 9.85695,1.484586 13.08754,3.652005 3.10121,2.080615 4.76537,4.725572 4.84776,7.411877 0.008,0.128452 0.0122,0.257715 0.0129,0.387766 0.0153,2.19336 -1.02346,4.341549 -3.02292,6.218732 -2.01008,1.887164 -4.91539,3.417964 -8.42797,4.275236 -0.14687,0.04988 -0.43865,0.10647 -0.81593,0.154585 -0.37699,0.04808 -0.80099,0.08359 -1.23694,0.09628 -0.0806,-1.8e-5 -0.16105,-8.19e-4 -0.24077,-0.0024 a 1.4147106,1.4147106 90 0 0 -0.0567,2.828852 z"
             style="display:inline;fill:none;fill-opacity:1;fill-rule:nonzero;stroke:#000000;stroke-width:0.71200001;stroke-miterlimit:4;stroke-dasharray:none;stroke-opacity:1" />
          <path
             id="path4229"
             d="m 264.82595,158.14533 0.0491,7.75399 -3.85357,-0.0259 c -2.87008,-0.003 -5.59479,1.12581 -7.56623,3.01429 -1.9973,1.91325 -3.31038,4.71103 -3.1463,7.871 l 6.89238,122.75341 c 0.14583,2.83513 1.30528,5.41555 3.2278,7.33299 1.91467,1.90962 4.47496,3.05415 7.24282,3.26683 28.83629,2.06988 57.85612,3.17938 87.06212,3.22014 29.53868,0.0103 59.26482,-1.07255 89.18116,-3.36039 2.75405,-0.22459 5.30431,-1.36605 7.21338,-3.28067 1.91719,-1.92276 3.05946,-4.50022 3.1999,-7.32528 l 6.68526,-122.75329 c 0.15731,-3.13284 -1.12625,-5.92592 -3.11423,-7.85037 -1.96667,-1.90384 -4.69431,-3.04291 -7.58415,-3.02763 l -2.19432,0.0298 -0.0939,-16.62499 -0.002,-1.00305 a 4.5213153,4.5213153 90 0 0 -9.04262,0.0138 l 0.002,1.00304 -0.0554,21.28955 a 4.6723047,4.5894657 0.46888585 0 0 4.60912,4.60212 l 6.77711,0.0919 c 0.39305,0.0156 0.71612,0.19231 0.9279,0.42516 0.19659,0.21614 0.21859,0.37097 0.199,0.52225 l -6.86888,122.7431 c -0.0395,0.4567 -0.21816,0.70742 -0.39204,0.8607 -0.18143,0.15995 -0.50036,0.33406 -1.01996,0.3586 -29.6566,2.23719 -59.12817,3.28028 -88.41859,3.23933 -28.96077,-0.01 -57.74736,-1.07968 -86.36344,-3.10319 -0.50741,-0.0212 -0.83002,-0.19233 -1.02181,-0.36121 -0.18411,-0.1621 -0.36232,-0.41832 -0.40207,-0.86443 l -7.07667,-122.74278 c -0.0175,-0.12477 -0.01,-0.26589 0.19731,-0.49069 0.22546,-0.24503 0.572,-0.43164 0.9853,-0.44936 l 8.47027,-0.12769 a 4.573871,4.6578559 88.965512 0 0 4.58838,-4.67134 l -0.2634,-12.4538 a 4.5157777,4.5157777 90 0 0 -9.0307,0.12406 z"
             style="display:inline;fill:none;fill-opacity:1;fill-rule:nonzero;stroke:#000000;stroke-width:2.52283478;stroke-miterlimit:4;stroke-dasharray:none;stroke-opacity:1"
             transform="scale(0.28222222)" />
        </g>
        <path
           transform="scale(0.28222222)"
           style="display:inline;fill:none;fill-opacity:1;fill-rule:nonzero;stroke:#000000;stroke-width:2.52283478;stroke-miterlimit:4;stroke-dasharray:none;stroke-opacity:1"
           d="m 330.25231,283.75767 -12.30248,-0.75615 c -0.6875,-0.1099 -1.1917,-0.49282 -1.49053,-0.94332 -0.30506,-0.45989 -0.39665,-0.97704 -0.29125,-1.49879 l 1.33195,-75.54935 0.005,-0.68773 c -0.0326,-0.35784 0.0712,-0.68196 0.29077,-0.95292 0.21276,-0.2625 0.51932,-0.45457 0.91079,-0.48526 a 0.00364859,0.04347894 85.548062 0 0 0.0439,2.6e-4 v -0.22483 a 4.8327606e-4,0.0383049 89.59786 0 0 -0.0383,-2.2e-4 l 12.34651,-0.0867 c 0.53863,-0.0297 1.02279,0.14916 1.40203,0.48234 0.37538,0.32979 0.64427,0.81058 0.67496,1.40884 l 1.1e-4,-0.0104 -0.75123,73.74516 a 2.7477105,2.7477105 90 0 0 5.49494,0.0727 l 1.20095,-73.73922 a 3.496731e-5,0.00957369 0.86739335 0 0 1.1e-4,-0.0104 c 0.0593,-2.21392 -0.77468,-4.27545 -2.20855,-5.79163 -1.4325,-1.51472 -3.46631,-2.48557 -5.73729,-2.5519 l -12.34592,-0.3631 a 0.03827356,9.1088408e-4 1.6840397 0 0 -0.0383,-2.2e-4 v -0.22491 l 0.0439,2.6e-4 c -2.41968,-0.0669 -4.66093,0.86346 -6.29496,2.42796 -1.63038,1.561 -2.67581,3.7728 -2.73823,6.2283 l -0.009,0.68976 -0.10714,75.56032 c 0.0815,2.29531 1.08336,4.30933 2.59226,5.70098 1.51122,1.39379 3.52837,2.16781 5.64964,2.09093 l 12.31995,-0.47973 a 2.0256778,2.0256778 90 0 0 0.0455,-4.0511 z"
           id="path4246" />
        <path
           transform="scale(0.28222222)"
           id="path4202"
           d="m 401.67253,214.36006 c 0.0323,0.0363 0.0644,0.0726 0.0964,0.10885 3.13577,3.7642 4.95511,7.41482 5.97074,11.7267 1.02507,4.35192 1.26564,9.51624 1.05582,16.4076 -0.25394,11.25533 -3.53187,21.18978 -8.43422,28.14576 -4.93217,6.99828 -11.17872,10.58938 -17.39988,10.38834 -6.18214,-0.1997 -12.07811,-4.15686 -16.50512,-11.19558 -4.39603,-6.98948 -7.12005,-16.72848 -6.9123,-27.58857 -3.1e-4,-0.0767 -4.8e-4,-0.15336 -4.9e-4,-0.23013 -0.003,-10.95996 2.94383,-20.7168 7.5142,-27.63631 4.57319,-6.92378 10.51621,-10.68909 16.62411,-10.73684 l -0.18977,-0.007 c 3.62514,0.10362 5.82403,0.60323 7.2317,1.15748 1.38111,0.5438 2.29747,1.2526 3.25053,2.20745 a 3.1893736,3.1893736 90 0 0 4.8599,-4.13156 c -1.1017,-1.47191 -2.57114,-3.08813 -5.03537,-4.40349 -2.42985,-1.297 -5.56455,-2.16311 -9.8506,-2.52818 a 0.26222438,0.00448915 0.99931661 0 0 -0.18978,-0.007 c -9.52631,-0.20747 -17.82518,5.3988 -23.62891,13.73691 -5.81029,8.34754 -9.39549,19.75876 -9.63045,32.25777 -0.002,0.0882 -0.003,0.1764 -0.004,0.26451 0.0641,12.40358 3.45899,23.76327 9.09133,32.13114 5.66811,8.421 13.851,14.11426 23.30243,14.06428 9.42376,-0.0497 17.39779,-5.81336 22.8532,-14.08537 5.47995,-8.30921 8.73032,-19.54648 8.7104,-31.74827 -0.0701,-7.08574 -0.59144,-12.78553 -2.07247,-17.73361 -1.49406,-4.99163 -3.92275,-9.087 -7.63747,-13.08121 -0.0352,-0.0399 -0.0706,-0.0798 -0.10608,-0.11973 a 1.982803,1.982803 90 0 0 -2.96342,2.63518 z"
           style="display:inline;fill:none;fill-opacity:1;fill-rule:nonzero;stroke:#000000;stroke-width:2.52283478;stroke-miterlimit:4;stroke-dasharray:none;stroke-opacity:1" />
      </g>
    </g>
  </g>
  <g
     transform="translate(-21.64784,-3.7443994)"
     id="layer7">
    <g
       transform="translate(0.52916671,4.2333335)"
       id="layer2"
       style="display:inline">
      <g
         id="g919"
         transform="translate(0.667954,-111.11929)">
        <path
           id="path875"
           d="m 143.92152,241.27654 c -0.0777,0.55827 -0.19174,0.69174 -0.39328,1.10853 -0.13332,0.27516 -0.34817,0.85583 -0.63603,0.98301 -0.20566,0.0908 -1.17366,-0.10795 -1.42432,-0.15938 -0.51917,-0.10687 -0.96801,-0.28014 -1.33792,-0.38473 -1.87092,-0.52856 -3.3919,-1.01628 -5.18721,-1.79824 -0.37724,-0.16425 -0.78866,-0.35622 -1.27299,-0.55346 -0.40883,-0.16643 -0.9858,-0.41075 -1.1694,-0.73978 -0.37276,-0.66809 0.0994,-1.25125 -0.42519,-2.00412 -0.30895,-0.44332 -1.05436,-0.63359 -1.65851,-0.89531 -1.67911,-0.72726 -3.49102,-1.43742 -5.11807,-2.06239 -1.75602,-0.67436 -3.32447,-1.51584 -5.09646,-2.11868 -2.29596,-0.78094 -4.52238,-1.86579 -6.82425,-2.74978 -1.14981,-0.44156 -2.25789,-0.86696 -3.43367,-1.31863 -1.13772,-0.43704 -2.23727,-0.97416 -3.39043,-1.43122 -0.57399,-0.22753 -1.16413,-0.3999 -1.72765,-0.63116 -2.28886,-0.93907 -4.52913,-1.93299 -6.802631,-2.80608 -1.139452,-0.43758 -2.296111,-0.85929 -3.412049,-1.37492 -0.554834,-0.25623 -1.09948,-0.53696 -1.684405,-0.74376 -0.569735,-0.20161 -1.141438,-0.45966 -1.706025,-0.68746 -1.625303,-0.65543 -3.402116,-1.38868 -5.096455,-2.11869 -0.536342,-0.23103 -1.187158,-0.45667 -1.814123,-0.40597 -0.755258,0.0611 -1.481571,0.5384 -1.973663,1.01842 -0.478037,0.46629 -0.916288,0.97499 -1.419168,1.4249 -1.034081,0.9251 -2.410823,2.03464 -3.826169,1.88956 -1.329372,-0.13649 -2.611482,-1.19035 -3.633161,-2.39653 -1.056494,-1.24707 -1.877555,-2.89895 -2.941644,-4.1979 -1.058525,-1.29191 -2.071285,-2.32787 -3.330953,-3.18448 -1.200314,-0.81638 -2.528204,-1.30695 -3.892667,-1.72113 -1.409827,-0.42759 -2.793274,-0.60964 -4.260201,-0.76407 -0.727237,-0.0764 -1.454011,-0.19714 -2.203862,-0.23252 -2.186461,-0.10323 -4.4451,-0.1958 -6.576045,-0.62022 -2.909416,-0.57905 -5.525046,-1.07565 -8.36922,-1.92215 -0.668884,-0.19912 -1.349881,-0.44811 -2.03075,-0.68297 -1.337695,-0.461 -2.641995,-0.94806 -3.936062,-1.60846 -0.621282,-0.31701 -1.289461,-0.56237 -1.926932,-0.86919 -0.638059,-0.30731 -1.252457,-0.70954 -1.879567,-1.07698 -2.369052,-1.38898 -4.959647,-3.05258 -6.791157,-6.03139 -0.99827,-1.62342 -1.111526,-3.40193 -0.946077,-4.85248 0.245362,-2.15319 0.855161,-4.24305 2.365061,-5.90623 1.06267,-1.17046 2.468156,-2.08705 4.405807,-2.47407 1.551014,-0.3098 3.170368,-0.17952 4.541326,0.0324 1.479399,0.2286 2.83446,0.51216 4.195186,0.93304 1.716128,0.53062 3.332049,1.19601 4.971028,1.94131 0.08351,0.0379 0.143014,0.0919 0.242458,0.12528 0.239733,0.0806 0.418617,0.24759 0.688622,0.39365 1.234043,0.66732 2.536411,1.27044 3.806274,1.94609 1.875475,0.99814 3.652903,2.25799 5.473771,3.49085 0.607648,0.41139 1.238631,0.7997 1.814552,1.24593 0.58921,0.45638 1.137764,0.96278 1.710822,1.43194 0.555438,0.45517 1.170174,0.90765 1.727918,1.4712 1.611825,1.62816 3.390591,3.13348 5.171338,4.27871 3.037221,1.95398 6.448637,2.86897 10.162153,3.22439 0.732481,0.0702 1.483217,0.04 2.251071,0.0248 1.558033,-0.031 3.027991,0.0237 4.3683,0.48259 1.379109,0.47225 2.64765,1.06858 3.547063,2.62173 0.786811,1.35888 0.992908,2.48351 0.997518,3.70957 9.94e-4,0.28372 -0.129921,0.88939 -0.01248,1.12557 0.09616,0.193 0.518561,0.3786 0.779527,0.49303 0.304913,0.13389 0.584296,0.22762 0.844456,0.3243 0.435823,0.16207 1.365023,0.59539 1.796784,0.36702 0.214002,-0.11317 0.242585,-0.23436 0.289677,-0.50233 0.227066,-1.28735 0.02461,-2.97892 -0.374555,-4.4069 -0.595765,-2.13189 -1.857039,-3.96032 -2.894269,-4.82557 -1.201205,-1.00212 -2.545503,-1.87858 -3.979731,-2.33582 -0.718395,-0.22899 -1.506717,-0.34284 -2.26878,-0.48368 -0.769251,-0.14231 -1.550891,-0.26212 -2.316301,-0.27583 -1.718436,-0.0307 -3.324099,0.22759 -4.93084,0.14118 -0.366164,-0.0198 -0.767964,-0.13188 -1.155967,-0.18566 -2.658151,-0.3677 -5.035231,-1.57295 -7.149565,-3.58517 -0.605049,-0.57629 -1.114518,-1.29313 -1.667486,-1.96466 -0.536834,-0.65164 -1.08459,-1.25734 -1.71088,-1.85199 -0.616484,-0.5852 -1.211841,-1.14096 -1.814924,-1.66585 -0.599045,-0.52126 -1.241447,-0.88825 -1.905527,-1.34547 -1.28152,-0.8818 -2.533084,-1.77433 -3.871563,-2.61715 -0.646856,-0.4072 -1.341238,-0.78652 -2.009344,-1.15925 -3.983794,-2.22162 -8.180065,-4.02251 -12.587488,-5.31832 -1.090501,-0.32046 -2.168135,-0.67578 -3.32086,-0.85541 -1.844336,-0.2876 -3.933189,-0.42699 -6.00461,-0.17441 -0.467889,0.057 -0.870078,0.1337 -1.328924,0.26472 -0.467971,0.1336 -1.027093,0.2973 -1.510658,0.48563 -2.240169,0.87266 -3.751967,2.44894 -4.725391,4.06324 -1.019869,1.69116 -1.628208,3.28299 -2.079569,5.07904 -0.23338,0.92834 -0.429171,1.77124 -0.448942,2.76675 -0.01889,0.9589 0.0089,1.96181 0.339389,3.06897 0.642502,2.15385 1.90382,4.20555 3.366469,5.78211 3.442789,3.71012 7.310855,6.3966 11.524085,8.17183 0.84345,0.35518 1.684336,0.74361 2.528861,1.06806 1.707376,0.65568 3.435418,1.21684 5.191651,1.70291 0.862579,0.23875 1.767866,0.40902 2.701662,0.61775 2.613441,0.58439 5.601069,1.13068 8.407663,1.06508 0.922837,-0.0214 1.877662,0.12715 2.853,0.22367 1.839086,0.18184 3.749097,0.50836 5.468184,1.0666 0.887093,0.28796 1.756539,0.61177 2.511678,1.02903 1.620698,0.89552 3.054822,2.40337 4.322514,4.0499 1.376908,1.78872 2.486839,3.29094 4.218697,4.23612 0.824222,0.44999 1.625286,0.72377 2.59372,0.89917 0.919729,0.16663 1.912188,0.28317 2.939323,-0.001 1.914855,-0.53053 3.09672,-1.55147 4.241352,-2.63425 0.416453,-0.39408 0.895523,-0.87315 1.475766,-0.98353 0.819306,-0.15591 1.976709,0.53637 2.823189,0.89039 2.749076,1.14965 5.476883,2.32912 8.170809,3.36366 1.841883,0.70747 3.653381,1.49977 5.455926,2.19226 5.45555,2.09535 10.96607,4.40483 16.42808,6.50252 1.71938,0.66042 3.5332,1.45375 5.45585,2.19211 0.8371,0.32159 1.79296,0.73932 2.75826,1.05912 0.41547,0.13771 0.86277,0.32809 1.38987,0.50144 0.48781,0.16059 1.1233,0.3195 1.30773,0.63154 0.23837,0.40304 0.0814,0.80244 0.10011,1.16881 0.0196,0.38351 -0.005,0.81849 0.21286,1.21198 0.28256,0.51071 1.22149,0.75991 1.80571,1.01631 0.31832,0.13969 0.66109,0.20763 0.97851,0.31131 1.60891,0.52587 3.16786,1.10311 4.85379,1.57342 0.61514,0.1715 1.31168,0.3908 1.97866,0.56593 0.99662,0.2618 2.00017,0.49849 3.00477,0.66955 0.64116,0.10915 1.26059,0.29909 2.04359,0.3972 0.77836,0.0977 1.19488,0.1506 1.75747,-0.45544 0.61619,-0.66389 0.81393,-1.51961 1.16337,-2.52443 0.1591,-0.45802 0.2815,-0.81309 0.4408,-1.31638 0.11789,-0.37191 0.36843,-1.03978 0.27198,-1.38109 -0.15886,-0.56333 -1.07828,-1.25492 -1.58958,-1.57943 -0.59402,-0.37657 -1.28317,-0.72779 -1.76675,-1.03365 -2.30784,-1.45954 -4.58838,-2.8573 -7.01983,-4.34285 -0.53189,-0.32507 -1.10897,-0.73195 -1.7452,-1.09011 -0.51536,-0.29003 -1.50025,-0.92859 -1.93114,-0.77378 -0.24005,0.0861 -0.44793,0.35188 -0.61891,0.60199 -0.32554,0.47627 -0.97916,1.63663 -0.76517,2.16068 0.18066,0.44198 0.97603,0.75919 1.42476,0.99934 2.5184,1.3466 4.92178,2.49515 7.44801,3.73221 1.0362,0.50762 2.10805,1.0425 2.94477,1.58308 z m -8.55399,-7.58021 c 0.50226,0.30296 1.0481,0.58261 1.56325,0.89103 1.0155,0.60794 2.03059,1.25565 3.1048,1.83821 1.53169,0.83058 3.09413,1.9518 4.58609,2.85925 0.54102,0.32921 1.12718,0.58661 1.54163,0.94732 0.23214,0.20194 0.55734,0.54543 0.64981,0.83082 0.16357,0.50429 -0.0202,0.89378 -0.19422,1.34648 -0.31765,0.82749 -0.51072,1.53345 -0.86882,2.34684 -0.24916,0.56569 -0.46433,1.01936 -1.10338,1.191 -0.59934,0.16144 -1.28819,-0.005 -1.97852,-0.14611 -1.37392,-0.28189 -2.52536,-0.52743 -3.74084,-0.85519 -0.61086,-0.16482 -1.194,-0.26525 -1.88776,-0.46656 -2.02599,-0.58837 -4.27553,-1.40846 -6.35639,-2.11804 -0.39866,-0.13604 -0.68753,-0.24981 -0.83567,-0.51471 -0.20873,-0.37293 -0.1631,-0.86148 -0.1739,-1.22932 -0.0121,-0.41953 0.0948,-0.77986 -0.15641,-1.19043 -0.24698,-0.40351 -0.80225,-0.62799 -1.29917,-0.82205 -3.26479,-1.27393 -6.39543,-2.55267 -9.56502,-3.77001 -5.45443,-2.09491 -10.95211,-4.33486 -16.39341,-6.4246 -5.016877,-1.92689 -9.991575,-4.0346 -14.934465,-6.18746 -0.475645,-0.20708 -0.960471,-0.42053 -1.389862,-0.50145 -0.992426,-0.18693 -1.873974,0.4806 -2.531982,1.12688 -1.065729,1.04654 -2.293124,2.13759 -4.141746,2.54344 -2.490714,0.54672 -4.715915,-0.33404 -6.50314,-1.81936 -1.137842,-0.94575 -1.951032,-2.17471 -2.971455,-3.53118 -1.213484,-1.6124 -2.714114,-2.98778 -4.313893,-3.82036 -2.344719,-1.2202 -5.13972,-1.71837 -7.828084,-2.06964 -0.941546,-0.12295 -1.870325,-0.13918 -2.835662,-0.18471 -0.468154,-0.022 -0.954322,0.022 -1.411492,-0.0252 -3.18166,-0.3287 -6.545829,-0.86779 -9.490139,-1.60999 -4.315301,-1.08756 -8.557711,-2.9594 -12.422947,-5.15836 -0.799199,-0.45459 -1.518595,-1.01471 -2.278142,-1.55304 -1.531881,-1.08609 -2.966421,-2.3587 -4.313738,-3.82043 -1.422746,-1.54353 -2.778619,-3.44691 -3.427358,-5.70833 -0.303932,-1.05961 -0.361563,-2.06417 -0.360767,-3.01297 9.78e-4,-0.96642 0.218033,-1.84921 0.466281,-2.72778 0.499816,-1.76982 1.076021,-3.34157 2.092471,-4.94477 1.032596,-1.62775 2.524647,-3.0399 4.890157,-3.90319 1.685841,-0.61512 3.447262,-0.61827 5.064753,-0.57398 1.539088,0.0422 3.044801,0.35133 4.455149,0.67731 3.005386,0.69485 5.744682,1.65095 8.365213,2.85744 3.359228,1.54611 6.654812,3.30034 9.760758,5.36301 0.621851,0.4131 1.289535,0.77312 1.892314,1.21133 1.532761,1.11407 3.05934,2.39968 4.426487,3.86359 0.859066,0.92009 1.591711,1.98905 2.447453,2.87775 2.151735,2.23512 5.173277,3.49987 7.958962,3.83154 0.752685,0.0896 1.512669,0.16114 2.303088,0.14168 0.767333,-0.0189 1.573761,-0.12612 2.4503,-0.1572 1.536094,-0.0543 3.091616,0.1184 4.519921,0.50864 0.734106,0.20052 1.452586,0.39026 2.087046,0.70459 0.680922,0.33733 1.261714,0.75843 1.909964,1.25014 1.301959,0.98772 2.211533,2.15847 3.093127,4.22365 0.399797,0.93648 0.571573,1.73061 0.646318,2.60583 0.06485,0.75901 0.130127,1.54584 -0.06798,2.36382 -0.63597,-0.082 -0.778993,-0.19399 -1.281618,-0.36311 -0.333531,-0.11219 -1.049842,-0.26182 -1.21241,-0.6271 -0.04023,-0.0904 -0.01816,-0.36718 -0.01327,-0.55419 0.03644,-1.3935 -0.373961,-2.90628 -1.292432,-4.37179 -1.825103,-2.9124 -4.996793,-3.35419 -8.045295,-3.18652 -3.157279,0.17369 -6.053626,-0.41921 -8.715575,-1.44147 -1.396236,-0.53633 -2.670784,-1.12811 -3.879755,-2.00674 -0.593527,-0.43167 -1.216944,-0.82522 -1.792933,-1.30223 -1.176355,-0.97398 -2.349831,-2.0732 -3.447672,-3.13253 -0.565495,-0.54572 -1.140278,-1.03597 -1.745257,-1.51016 -1.086443,-0.85081 -2.337548,-1.76035 -3.603291,-2.6432 -1.213613,-0.84668 -2.478223,-1.68168 -3.728729,-2.40067 -0.308676,-0.17759 -0.602671,-0.39811 -0.909148,-0.57537 -0.962446,-0.55669 -1.940033,-1.01945 -2.910097,-1.50516 -1.329071,-0.66479 -2.610459,-1.38983 -3.923306,-1.894 -2.45365,-0.94227 -5.549039,-2.03861 -8.390898,-2.28591 -1.355635,-0.11788 -3.124725,-0.21083 -4.744524,0.24477 -3.800923,1.06954 -5.575029,4.13799 -6.23917,6.7438 -0.367236,1.43972 -0.543554,2.93842 -0.261681,4.55003 0.496336,2.84061 2.56491,5.01304 4.202363,6.29691 1.824934,1.43119 3.626001,2.58642 5.564744,3.59038 3.904736,2.02176 7.971158,3.49733 12.245065,4.44406 2.807083,0.6218 5.691595,1.33702 8.715193,1.44145 3.00363,0.10361 6.20807,0.3094 8.845293,1.10369 0.72731,0.21923 1.358872,0.45363 2.008905,0.73918 2.019718,0.88764 3.63226,2.53042 5.257944,4.47372 0.566878,0.67804 1.016285,1.46044 1.486063,2.18543 0.95897,1.48016 2.036716,2.76575 3.317799,3.47038 0.625418,0.34393 1.441353,0.60792 2.091172,0.6094 0.641574,0.001 1.436742,-0.34799 2.034455,-0.67207 1.285268,-0.69673 2.091143,-1.614 2.955512,-2.48206 0.4427,-0.44459 0.923908,-0.94068 1.674683,-1.16541 0.514011,-0.15389 1.122501,0.14025 1.701598,0.3629 1.518894,0.58329 3.031637,1.261 4.442666,1.80288 2.042457,0.78436 4.077774,1.69531 5.923572,2.40402 1.492998,0.57335 2.959528,1.24119 4.403704,1.82022 0.23867,0.0958 0.5188,0.12365 0.75348,0.22475 0.12263,0.0528 0.21708,0.17355 0.3335,0.22498 0.13029,0.0574 0.26834,0.10163 0.39386,0.15125 2.97764,1.17787 5.94926,2.35226 8.84628,3.62332 0.96463,0.42316 2.00564,0.71674 2.9833,1.14567 1.94925,0.85516 3.95714,1.6185 5.92357,2.40402 1.90485,0.76085 3.92543,1.55102 5.92357,2.40402 1.39353,0.59485 2.97004,1.12973 4.44267,1.80288 0.49734,0.2273 1.2639,0.49739 1.41598,0.76988 0.30153,0.54035 -0.13977,1.18315 0.16548,1.83965 0.0578,0.12439 0.27696,0.36515 0.39858,0.47606 0.62082,0.56684 1.75151,0.81527 2.61976,1.16744 2.27223,0.92182 4.40271,1.62164 6.85414,2.08321 0.52638,0.0992 1.16071,0.28063 1.50224,0.12471 0.49868,-0.22736 0.70956,-0.81653 0.91715,-1.29482 0.1949,-0.44932 0.55947,-0.96835 0.29803,-1.53271 -0.2023,-0.43609 -0.93631,-0.68631 -1.39023,-0.92136 -3.00211,-1.55457 -5.7469,-3.01007 -8.72993,-4.51507 -0.39319,-0.19841 -1.31689,-0.57743 -1.42904,-0.90409 -0.0915,-0.26602 0.24247,-0.70237 0.36738,-0.95698 0.18559,-0.37796 0.33141,-0.74961 0.63175,-0.88775 0.58586,0.12834 1.0316,0.54215 1.54583,0.85229 z"
           style="clip-rule:evenodd;fill-rule:evenodd;stroke-width:0.17057005" />
        <path
           id="path879"
           d="m 36.852983,198.57661 c 0.01232,-0.99631 0.122857,-1.93513 0.530898,-2.89639 0.111104,-0.26172 0.283277,-0.72183 0.475847,-0.81855 0.388031,-0.19492 1.405125,0.34193 1.991635,0.70037 0.638015,0.38985 1.276803,0.80157 1.801651,1.11165 1.296719,0.7662 2.454399,1.38946 3.689399,1.99811 1.241861,0.61231 2.479627,1.14075 3.793287,1.81202 0.296107,0.15144 0.589078,0.36925 0.930768,0.51907 0.320417,0.14062 0.653395,0.22263 0.93543,0.42384 0.589815,0.42082 1.200874,0.9653 1.563765,1.73076 0.400339,0.84457 0.376879,1.56877 0.789094,2.40226 0.40254,0.81428 1.189484,1.4838 1.923021,1.38437 0.650638,-0.0881 1.358992,-0.73328 1.925987,-0.8105 0.279505,-0.0381 0.831261,0.12517 1.051924,0.3718 0.275872,0.30775 0.392657,0.92715 0.628404,1.30709 0.120499,0.19356 0.3855,0.4085 0.602074,0.61868 0.432006,0.41861 0.907778,0.77406 1.429192,0.90402 1.007942,0.25116 2.083844,0.0317 3.268339,-0.5211 0.02355,-0.0109 0.05246,-0.029 0.07792,-0.0347 0.608616,-0.13681 1.587448,0.0196 2.298876,0.2371 2.096262,0.64055 4.127376,1.76565 6.087957,2.56405 1.356497,0.55233 2.692727,1.16315 4.065994,1.69065 1.391438,0.53436 2.716215,1.23691 4.044306,1.7468 0.686668,0.26383 1.408383,0.48182 2.082765,0.79984 0.336481,0.15868 0.669146,0.3394 1.009066,0.48441 0.98813,0.42185 2.031499,0.75974 3.056929,1.20625 1.020701,0.44469 1.982279,0.92895 3.031028,1.3578 0.332988,0.13615 0.705039,0.18807 1.034897,0.3327 0.668689,0.29349 1.319562,0.63001 2.000568,0.92978 0.659283,0.29039 1.387686,0.47851 2.065427,0.76088 0.690109,0.2875 1.332549,0.69442 2.000568,0.92977 1.364618,0.48039 2.741767,1.04892 4.104881,1.67317 0.65466,0.29973 1.36433,0.53092 2.04381,0.81718 0.34568,0.1458 0.67399,0.33686 1.00891,0.48447 0.97729,0.43022 2.01318,0.80374 3.05708,1.20618 0.69458,0.26778 1.31981,0.63643 2.0005,0.92962 1.36032,0.5861 2.79455,1.00432 4.08761,1.63436 1.00531,0.48982 2.0673,0.78731 3.11338,1.2278 1.63982,0.69098 3.36655,1.32554 5.07912,2.07972 1.92716,0.84875 3.97664,1.77262 6.06641,2.6205 0.57548,0.23341 1.7721,0.82964 2.08697,0.70443 0.28332,-0.11264 0.61421,-0.88312 0.7397,-1.16917 0.20009,-0.4561 0.45629,-0.89648 0.30665,-1.30316 -0.15778,-0.4292 -0.67418,-0.6469 -1.12593,-0.85229 -2.11205,-0.96044 -4.14641,-1.73963 -6.25707,-2.62899 -2.46993,-1.04052 -5.05783,-2.20682 -7.49103,-3.19964 -1.2565,-0.51264 -2.48187,-1.04342 -3.74556,-1.5999 -0.39759,-0.17517 -0.85555,-0.24393 -1.23846,-0.47548 -3.87921,-1.64347 -7.74534,-3.30079 -11.777323,-4.96495 -3.333596,-1.37567 -6.812997,-2.74881 -10.219137,-4.18387 -1.842456,-0.77629 -3.682736,-1.59929 -5.525493,-2.35696 -1.8016,-0.7407 -3.601587,-1.54448 -5.490535,-2.27002 -1.783265,-0.68482 -3.578049,-1.54319 -5.486253,-2.36528 -0.871932,-0.37554 -1.80723,-0.74454 -2.754049,-1.15453 -0.897449,-0.38883 -1.98236,-0.88467 -2.822877,-0.89052 -0.964953,-0.006 -2.180301,0.93544 -3.073177,0.85431 -0.317658,-0.0287 -0.811146,-0.2805 -0.987377,-0.54055 -0.443331,-0.65423 -0.09442,-1.25293 -0.334291,-1.90474 -0.190545,-0.51749 -0.634196,-1.01681 -1.017987,-1.1337 -0.599687,-0.18249 -1.373506,0.1914 -2.181502,0.551 -1.182464,0.52627 -2.463842,1.03961 -3.199199,0.25695 -0.328317,-0.34882 -0.5852,-1.08081 -0.728156,-1.63609 -0.106757,-0.41439 -0.07736,-0.8341 -0.212705,-1.21205 -0.437195,-1.21893 -1.426874,-1.52135 -2.511882,-1.8689 -0.649924,-0.20812 -1.355573,-0.40301 -1.900817,-0.60077 -2.658612,-0.96401 -4.79388,-2.22329 -7.140692,-3.77582 -0.868119,-0.57421 -1.675578,-1.16105 -2.512038,-1.86883 -0.274586,-0.23271 -0.497316,-0.52342 -0.788304,-0.7225 -0.722238,-0.49519 -1.824619,-0.9166 -2.675761,-0.7693 -0.608182,0.10507 -1.100844,0.92737 -1.458127,1.44224 -0.615851,0.88739 -1.109471,1.76838 -1.518059,2.77581 -0.203603,0.50191 -0.464053,0.98936 -0.618478,1.44195 -0.16589,0.48681 -0.280277,1.20554 -0.288946,1.76203 -0.02088,1.33114 0.948781,2.62096 1.910899,3.34974 0.461741,0.34993 1.084968,0.60839 1.697307,0.87804 0.56652,0.24935 1.134461,0.49936 1.745139,0.67006 1.300375,0.36372 2.333387,0.59906 3.749091,0.66482 1.230077,0.0573 2.593937,0.10428 3.961387,0.19712 0.58084,0.0395 1.328856,0.1089 1.917785,0.21982 0.547742,0.10311 1.435511,0.46096 1.918166,0.21983 0.148263,-0.0742 0.492368,-0.44877 0.527863,-0.70168 0.04259,-0.30535 -0.209357,-0.8295 -0.364327,-1.2381 -0.181953,-0.47931 -0.332118,-0.90649 -0.545992,-1.01705 -0.234402,-0.12102 -1.201524,0.13484 -1.515309,0.16098 -0.550004,0.0458 -1.086489,0.11015 -1.493379,0.10453 -0.450395,-0.006 -0.93212,-0.14917 -1.402861,-0.21561 -1.381964,-0.19466 -2.699117,-0.61832 -4.000706,-1.01959 -0.912271,-0.2816 -1.745797,-0.60273 -2.550325,-1.01182 -0.8003,-0.40631 -1.653342,-0.75703 -2.355556,-1.51765 z m 77.691187,29.80359 c -3.60032,-1.37888 -9.61807,-3.91313 -14.23121,-5.91739 -0.331863,-0.14411 -0.654182,-0.31376 -0.991498,-0.44536 -2.682381,-1.04678 -5.460942,-2.11124 -8.079973,-3.26444 -1.014502,-0.44671 -2.049603,-0.87341 -3.013845,-1.31878 -1.006874,-0.46522 -2.033268,-0.83251 -3.035379,-1.2627 -0.332835,-0.14293 -0.685389,-0.2362 -1.013277,-0.38899 -1.012904,-0.47206 -2.029009,-0.83553 -3.035309,-1.26255 -0.331934,-0.14091 -0.641826,-0.32374 -0.991727,-0.44545 -0.335992,-0.11689 -0.690886,-0.24814 -1.013122,-0.38907 -0.660581,-0.28869 -1.35278,-0.52971 -2.004849,-0.83452 -0.808442,-0.37803 -1.703611,-0.74286 -2.489902,-1.08539 -0.517202,-0.22536 -1.005151,-0.48316 -1.51567,-0.67883 -1.269125,-0.48648 -2.651856,-1.13131 -4.005036,-1.76428 -1.304501,-0.61001 -2.850284,-1.27973 -4.221769,-1.20125 -0.347092,0.0197 -0.867653,0.13411 -1.155596,0.23426 -0.632351,0.21982 -1.085768,0.5019 -1.532278,0.54192 -0.884965,0.0793 -1.504295,-0.21322 -2.126004,-0.68724 -0.260178,-0.19824 -0.434269,-0.33939 -0.567397,-0.54077 -0.346349,-0.52358 -0.44105,-1.13824 -0.771395,-1.5235 -0.396577,-0.46276 -0.966692,-0.63041 -1.502301,-0.54476 -0.156981,0.0252 -0.347343,0.0372 -0.480558,0.0738 -0.363071,0.1 -0.715159,0.37523 -1.146975,0.4638 -0.07438,0.0154 -0.229891,-0.0379 -0.342063,-0.0345 -0.1417,0.005 -0.249978,0.0353 -0.363527,0.0218 -0.648609,-0.076 -1.051321,-0.68255 -1.381816,-1.53169 -0.231926,-0.59579 -0.307106,-1.40696 -0.741428,-2.19029 -0.36845,-0.66385 -1.031578,-1.15585 -1.667652,-1.54469 -0.296382,-0.181 -0.653413,-0.25791 -0.974319,-0.40634 -0.348277,-0.16127 -0.653165,-0.34838 -0.952457,-0.46293 -1.327432,-0.50757 -2.613931,-1.20382 -3.849514,-1.83349 -1.187442,-0.60498 -2.442492,-1.30439 -3.702527,-2.13247 -0.547664,-0.35967 -1.136786,-0.77894 -1.818989,-1.15061 -0.630769,-0.34379 -1.508096,-0.83717 -2.030594,-0.68304 -0.50996,0.15042 -0.670631,0.48032 -0.86115,0.89669 -0.337218,0.73613 -0.502799,1.41996 -0.652414,2.20385 -0.07985,0.41753 -0.251915,0.78685 -0.129358,1.17759 0.210126,0.67139 0.84423,1.10237 1.368828,1.39763 2.170476,1.22177 4.395389,1.8762 6.720068,2.5161 0.595329,0.16389 1.186923,0.30219 1.796628,0.36709 0.973489,0.10369 1.937141,0.0389 2.92221,-0.0403 0.31214,-0.0252 0.658746,-0.0833 0.952554,0.0428 0.109938,0.30282 0.68755,1.24492 0.420769,1.67955 -0.690765,0.22491 -1.386077,-0.076 -2.091026,-0.18957 -0.689413,-0.11101 -1.429035,-0.12424 -2.169185,-0.15461 -1.426715,-0.0586 -2.90886,-0.10209 -4.355155,-0.3486 -1.441982,-0.24562 -2.798569,-0.49695 -4.074342,-1.08016 -1.104589,-0.50482 -2.717147,-1.39967 -3.339204,-2.99411 -0.413871,-1.05998 0.02281,-1.89228 0.314487,-2.7534 0.3987,-1.17647 0.962382,-2.27758 1.656409,-3.30395 0.149279,-0.22084 0.301917,-0.50964 0.493186,-0.77959 0.261134,-0.36846 0.596535,-0.89934 1.168224,-0.94001 1.443276,-0.10259 2.701265,1.4999 3.940773,2.35317 0.628615,0.43249 1.286013,0.86337 1.927302,1.2891 0.654924,0.43498 1.312416,0.87907 1.948611,1.23295 0.728877,0.40524 1.37771,0.71578 2.013781,1.06392 0.92962,0.50894 2.031801,1.04526 3.087325,1.37942 0.363719,0.115 0.727955,0.26095 1.091264,0.35448 0.875163,0.22549 1.69997,0.39573 2.099948,0.83887 0.704511,0.78089 0.708332,2.32525 1.114248,3.23772 0.246209,0.55321 0.6084,1.03352 1.186879,1.19857 0.705964,0.20147 1.683708,-0.14631 2.402409,-0.36927 0.382078,-0.11852 0.871492,-0.2484 1.298528,-0.4379 0.494113,-0.21916 0.765765,-0.40877 1.121074,-0.31224 0.107045,0.0291 0.333601,0.11403 0.446096,0.26821 0.265319,0.36417 0.14904,0.93812 0.277779,1.46314 0.187191,0.76375 0.534057,1.2843 0.940286,1.58836 0.537844,0.18911 1.144541,0.29716 1.943685,0.0683 0.63322,-0.18138 1.231037,-0.57234 1.843945,-0.68064 0.583503,-0.10305 1.456522,0.36555 2.147624,0.63095 0.718195,0.27594 1.388514,0.53995 1.987355,0.79563 1.36079,0.58085 2.735874,1.07301 3.953556,1.64735 0.652469,0.3078 1.340156,0.49967 1.98751,0.79556 1.970713,0.90087 3.996803,1.68411 5.93656,2.53808 1.297087,0.57111 2.649045,1.05116 3.974864,1.59119 0.661074,0.26924 1.290482,0.59235 1.965891,0.85185 0.663179,0.25468 1.331989,0.51321 1.98751,0.79556 1.314039,0.566 2.646498,1.11801 3.951925,1.67515 2.97054,1.26803 5.995929,2.4269 8.899779,3.71247 0.99786,0.44161 2.00016,0.8114 2.97901,1.24093 0.65454,0.28728 1.29621,0.62284 1.94427,0.90815 0.65547,0.28854 1.33428,0.51667 1.98751,0.79556 1.00282,0.42801 2.01321,0.8491 2.97917,1.24086 1.01201,0.41047 1.98869,0.83219 2.97901,1.24092 0.66399,0.27411 1.30815,0.58505 1.96589,0.85186 1.93664,0.78571 3.9786,1.68474 5.91929,2.49927 0.63891,0.2681 1.30706,0.51926 1.98744,0.79541 0.63016,0.25556 1.37083,0.50021 1.98751,0.79556 0.54791,0.26248 1.81276,0.60971 1.96161,0.94711 0.12157,0.27524 -0.14889,0.63869 -0.25066,0.90504 -0.13461,0.35153 -0.2527,0.60722 -0.34582,0.90052 -5.23797,-1.97561 -9.53457,-4.11981 -14.96231,-6.1984 z"
           style="clip-rule:evenodd;fill-rule:evenodd;stroke-width:0.17057005" />
      </g>
    </g>
  </g>
  <g
     transform="translate(-21.64784,-3.7443994)"
     id="layer6">
    <g
       transform="translate(1.5875,3.1750001)"
       id="layer3"
       style="display:inline">
      <path
         d="m 66.532181,138.64306 c 1.317964,-2.15148 2.635973,-4.30303 3.795872,-5.91916 1.159899,-1.61613 2.161768,-2.69697 2.925265,-3.50119 0.763498,-0.80421 1.288704,-1.33188 1.591565,-1.62884 0.302861,-0.29696 0.383372,-0.36322 0.471592,-0.4148 0.08822,-0.0516 0.184346,-0.0885 0.292297,-0.0754 0.107951,0.0131 0.227716,0.0761 0.353241,0.18047 0.125525,0.10434 0.256582,0.24983 0.414161,0.3764 0.157578,0.12657 0.341489,0.23403 0.487311,0.29973 0.145821,0.0657 0.253569,0.0896 8.607428,-2.69914 8.353858,-2.78871 24.937827,-8.38463 33.326217,-11.21262 8.38838,-2.82799 8.57319,-2.88534 8.70995,-2.91001 0.13676,-0.0247 0.22513,-0.0167 0.37353,0.0614 0.1484,0.0781 0.35638,0.22614 0.58762,0.3672 0.23123,0.14105 0.48539,0.27488 0.76233,0.36308 0.27694,0.0882 0.57104,0.1299 0.89652,0.14183 0.32548,0.0119 0.65961,-0.007 1.0318,-0.0467 0.37219,-0.0399 0.77321,-0.10036 1.54086,-0.35454 0.76766,-0.25418 1.89802,-0.70099 2.63799,-0.93959 0.73997,-0.23859 1.08535,-0.26729 1.42891,-0.40052 0.34355,-0.13322 0.68511,-0.37088 1.15957,-0.81696 0.47446,-0.44608 1.08186,-1.10061 1.44873,-1.61902 0.36687,-0.5184 0.50177,-0.92637 0.58748,-1.36829 0.0857,-0.44193 0.1265,-0.93083 0.0528,-1.39413 -0.0737,-0.4633 -0.26203,-0.90116 -0.37483,-1.20926 -0.11281,-0.30811 -0.15023,-0.48651 -0.11095,-0.65548 0.0393,-0.16897 0.15541,-0.32818 0.36848,-0.46122 0.21307,-0.13304 0.5239,-0.2399 0.75675,-0.39227 0.23285,-0.15237 0.38835,-0.35076 0.48483,-0.54024 0.0965,-0.18948 0.13285,-0.36769 0.20451,-0.5079 0.0716,-0.14022 0.17836,-0.24071 0.34698,-0.3412 0.16862,-0.10048 0.4196,-0.21003 5.13543,-2.119118 4.71582,-1.909089 13.90742,-5.622458 18.59063,-7.572153 4.68322,-1.949695 4.85842,-2.135823 4.99161,-2.359527 0.13319,-0.223705 0.2244,-0.484997 0.27509,-0.713434 0.0507,-0.228436 0.0609,-0.424111 1.18995,-1.174442 1.12907,-0.750331 3.37927,-2.056736 4.55191,-2.815745 1.17265,-0.759009 1.26887,-0.97123 1.27013,-1.179252 0.001,-0.208022 -0.0925,-0.412081 -0.21417,-0.592066 -0.12169,-0.179985 -0.27153,-0.336203 -0.47734,-0.444509 -0.20581,-0.108305 -0.46779,-0.168865 -1.81127,0.136613 -1.34349,0.305479 -3.76954,0.977247 -5.0285,1.327385 -1.25895,0.350138 -1.35135,0.378795 -1.4648,0.535535 -0.11346,0.156739 -0.24792,0.441636 -0.26578,0.85754 -0.0179,0.415905 0.0809,0.962519 0.19358,1.30854 0.1127,0.346022 0.23918,0.490959 0.38884,0.635259 0.14967,0.144299 0.32197,0.287318 0.43843,0.440542 0.11646,0.153223 0.17697,0.316569 0.15294,0.516614 -0.024,0.200044 -0.13196,0.434386 -0.35409,0.522305 -0.22213,0.08792 -0.55407,0.02861 -0.80615,-0.133817 -0.25207,-0.162428 -0.4198,-0.4252 -0.57917,-0.798397 -0.15937,-0.373197 -0.30957,-0.855302 -0.38438,-1.385989 -0.0748,-0.530686 -0.0741,-1.126726 -0.0195,-1.561403 0.0547,-0.434676 0.16276,-0.712659 0.11886,-0.924265 -0.0439,-0.211606 -0.24,-0.354693 -0.42593,-0.40534 -0.18594,-0.05065 -0.36212,-0.0095 -4.9315,1.989148 -4.56938,1.998644 -13.49347,5.937772 -18.15986,8.002411 -4.66639,2.064638 -5.05578,2.246267 -5.32793,2.234438 -0.27215,-0.01183 -0.42704,-0.217058 -0.60287,-0.333628 -0.17583,-0.116571 -0.38179,-0.145889 -0.51998,-0.118187 -0.1382,0.0277 -0.21343,0.111965 -0.31062,0.370146 -0.0972,0.25818 -0.21632,0.690058 -0.26414,1.221614 -0.0478,0.531556 -0.0243,1.162378 0.12263,1.750005 0.14688,0.587627 0.41704,1.131802 0.74181,1.554458 0.32477,0.422659 0.70349,0.723159 0.93565,0.951319 0.23217,0.22815 0.31627,0.3827 0.34269,0.58581 0.0264,0.2031 -0.005,0.45483 -0.16289,0.67466 -0.1581,0.21984 -0.44099,0.406 -0.71507,0.52568 -0.27408,0.11968 -0.53619,0.17174 -0.79229,0.0696 -0.2561,-0.1021 -0.50367,-0.35713 -0.75068,-0.61963 -0.24702,-0.26249 -0.49235,-0.53127 -0.71671,-0.92798 -0.22436,-0.39671 -0.42767,-0.92127 -0.59205,-1.548951 -0.16439,-0.627682 -0.28994,-1.358811 -0.23796,-2.089086 0.052,-0.730275 0.28146,-1.46005 0.3882,-1.883223 0.10674,-0.423174 0.0908,-0.539776 0.004,-0.755694 -0.0873,-0.215918 -0.24606,-0.531654 -0.55173,-0.916003 -0.30568,-0.384348 -0.76437,-0.843656 -1.28691,-1.172788 -0.52255,-0.329131 -1.11212,-0.5312 -1.69138,-0.635092 -0.57926,-0.103893 -1.14841,-0.10966 -1.67001,-0.04405 -0.52161,0.06561 -0.99578,0.20261 -1.78634,0.544161 -0.79055,0.341551 -1.89757,0.88769 -2.54123,1.229242 -0.64366,0.341553 -0.82402,0.478564 -1.00982,0.728691 -0.18579,0.250127 -0.37699,0.613351 -0.49205,0.993506 -0.11506,0.380155 -0.15394,0.777117 -0.16575,1.343129 -0.0118,0.566013 0.003,1.300633 0.14076,2.200254 0.13731,0.899621 0.39661,1.963754 0.72831,2.934734 0.33169,0.97098 0.73567,1.84845 1.23435,2.73722 0.49868,0.88877 1.09191,1.78856 1.60519,2.47107 0.51328,0.68251 0.94654,1.14763 1.24231,1.47193 0.29576,0.3243 0.454,0.50774 0.59605,0.68972 0.14205,0.18198 0.2674,0.36183 0.24488,0.53696 -0.0225,0.17512 -0.19221,0.34383 -0.37932,0.443 -0.18711,0.0992 -0.38856,0.12767 -0.73545,-0.005 -0.34688,-0.13227 -0.83484,-0.42355 -1.15015,-0.6799 -0.31531,-0.25635 -0.45614,-0.47641 -0.8726,-1.16289 -0.41645,-0.68649 -1.10856,-1.83946 -1.73521,-3.10928 -0.62665,-1.26983 -1.19462,-2.6732 -1.62595,-3.94394 -0.43133,-1.27074 -0.72929,-2.416691 -0.79716,-3.440538 -0.0679,-1.023847 0.0945,-1.924597 -0.0453,-2.271147 -0.13987,-0.346551 -0.58132,-0.139292 -0.873,0.115073 -0.29168,0.254364 -0.43234,0.553892 -0.548,0.948649 -0.11566,0.394757 -0.20506,0.880205 -0.52787,1.274891 -0.32282,0.394685 -0.87548,0.694657 -8.51041,4.385762 -7.63493,3.6911 -22.28212,10.73948 -29.834309,14.4319 -7.552188,3.69242 -7.970841,4.01027 -8.254971,4.4773 -0.284131,0.46702 -0.433274,1.08262 -0.511467,1.45965 -0.07819,0.37703 -0.08538,0.51544 -0.186202,0.67575 -0.100819,0.16032 -0.294877,0.34215 -1.386769,1.53354 -1.091893,1.19138 -3.080728,3.39137 -5.069937,5.59178"
         style="fill:#ffffff;fill-opacity:1;fill-rule:nonzero;stroke:#000000;stroke-width:0.69700003;stroke-linecap:butt;stroke-linejoin:miter;stroke-miterlimit:4;stroke-dasharray:none;stroke-opacity:1"
         id="path939-7" />
    </g>
  </g>
</svg>
